<?xml version="1.0" encoding="UTF-8" standalone="no"?>
<svg
   viewBox="0 0 22 22"
   version="1.1"
   id="svg1"
   sodipodi:docname="dpad.svg"
   inkscape:version="1.3 (0e150ed6c4, 2023-07-21)"
   xmlns:inkscape="http://www.inkscape.org/namespaces/inkscape"
   xmlns:sodipodi="http://sodipodi.sourceforge.net/DTD/sodipodi-0.dtd"
   xmlns="http://www.w3.org/2000/svg"
   xmlns:svg="http://www.w3.org/2000/svg">
  <defs
     id="defs1" />
  <sodipodi:namedview
     id="namedview1"
     pagecolor="#505050"
     bordercolor="#ffffff"
     borderopacity="1"
     inkscape:showpageshadow="0"
     inkscape:pageopacity="0"
     inkscape:pagecheckerboard="1"
     inkscape:deskcolor="#d1d1d1"
     showgrid="true"
     inkscape:zoom="38.590909"
     inkscape:cx="11"
     inkscape:cy="11"
     inkscape:window-width="1920"
     inkscape:window-height="1027"
     inkscape:window-x="-8"
     inkscape:window-y="-8"
     inkscape:window-maximized="1"
     inkscape:current-layer="svg1">
    <inkscape:grid
       id="grid1"
       units="px"
       originx="0"
       originy="0"
       spacingx="1"
       spacingy="1"
       empcolor="#0099e5"
       empopacity="0.30196078"
       color="#0099e5"
       opacity="0.14901961"
       empspacing="5"
       dotted="false"
       gridanglex="30"
       gridanglez="30"
       visible="true" />
  </sodipodi:namedview>
  <path
     id="path1"
     d="M 9 1 C 7.8954316 1 7 1.8954316 7 3 L 7 7 L 3 7 C 1.8954316 7 1 7.8954316 1 9 L 1 13 C 1 14.104568 1.8954316 15 3 15 L 7 15 L 7 19 C 7 20.104568 7.8954316 21 9 21 L 13 21 C 14.104568 21 15 20.104568 15 19 L 15 15 L 19 15 C 20.104568 15 21 14.104568 21 13 L 21 9 C 21 7.8954316 20.104568 7 19 7 L 15 7 L 15 3 C 15 1.8954316 14.104568 1 13 1 L 9 1 z M 11 2.5 A 2.5 2.5 0 0 1 13.5 5 A 2.5 2.5 0 0 1 11 7.5 A 2.5 2.5 0 0 1 8.5 5 A 2.5 2.5 0 0 1 11 2.5 z " />
</svg>
