<?xml version="1.0" encoding="UTF-8" standalone="no"?>
<!-- Created with Inkscape (http://www.inkscape.org/) -->

<svg
   width="640"
   height="480"
   viewBox="0 0 640 480"
   version="1.1"
   id="svg8"
   inkscape:version="1.2.2 (732a01da63, 2022-12-09)"
   sodipodi:docname="logojp.svg"
   xmlns:inkscape="http://www.inkscape.org/namespaces/inkscape"
   xmlns:sodipodi="http://sodipodi.sourceforge.net/DTD/sodipodi-0.dtd"
   xmlns:xlink="http://www.w3.org/1999/xlink"
   xmlns="http://www.w3.org/2000/svg"
   xmlns:svg="http://www.w3.org/2000/svg"
   xmlns:rdf="http://www.w3.org/1999/02/22-rdf-syntax-ns#"
   xmlns:cc="http://creativecommons.org/ns#"
   xmlns:dc="http://purl.org/dc/elements/1.1/">
  <defs
     id="defs2">
    <linearGradient
       id="linearGradient5799">
      <stop
         style="stop-color:#f878a3;stop-opacity:1"
         offset="0"
         id="stop5795" />
      <stop
         style="stop-color:#fc5f85;stop-opacity:1"
         offset="1"
         id="stop5797" />
    </linearGradient>
    <linearGradient
       inkscape:collect="always"
       xlink:href="#linearGradient5791"
       id="linearGradient2262"
       x1="539.28113"
       y1="458.57251"
       x2="539.28113"
       y2="534.50281"
       gradientUnits="userSpaceOnUse"
       gradientTransform="matrix(1.2531775,0,0,1.2531775,-161.8414,-187.07115)" />
    <linearGradient
       inkscape:collect="always"
       id="linearGradient5791">
      <stop
         style="stop-color:#1ee9a5;stop-opacity:1"
         offset="0"
         id="stop5787" />
      <stop
         style="stop-color:#00c870;stop-opacity:1"
         offset="1"
         id="stop5789" />
    </linearGradient>
    <linearGradient
       inkscape:collect="always"
       xlink:href="#linearGradient5799"
       id="linearGradient6926"
       gradientUnits="userSpaceOnUse"
       gradientTransform="matrix(1.2531775,0,0,1.2531775,-160.15201,-187.96777)"
       x1="505.35159"
       y1="371.69235"
       x2="505.35159"
       y2="446.76883" />
    <linearGradient
       inkscape:collect="always"
       xlink:href="#linearGradient5791"
       id="linearGradient7339"
       x1="436.52982"
       y1="440.59863"
       x2="543.4762"
       y2="440.59863"
       gradientUnits="userSpaceOnUse"
       gradientTransform="matrix(0,0.87026382,-0.87026382,0,879.70764,5.8711692)" />
  </defs>
  <sodipodi:namedview
     id="base"
     pagecolor="#ffffff"
     bordercolor="#666666"
     borderopacity="1.0"
     inkscape:pageopacity="0.0"
     inkscape:pageshadow="2"
     inkscape:zoom="1.1265823"
     inkscape:cx="181.96629"
     inkscape:cy="260.07865"
     inkscape:document-units="px"
     inkscape:current-layer="g6009"
     showgrid="false"
     units="px"
     inkscape:pagecheckerboard="true"
     borderlayer="true"
     gridtolerance="10"
     inkscape:snap-smooth-nodes="true"
     inkscape:snap-text-baseline="true"
     inkscape:snap-page="true"
     showguides="true"
     inkscape:guide-bbox="true"
     inkscape:showpageshadow="0"
     inkscape:deskcolor="#d1d1d1"
     inkscape:window-width="1920"
     inkscape:window-height="1027"
     inkscape:window-x="-8"
     inkscape:window-y="-8"
     inkscape:window-maximized="1">
    <inkscape:grid
       type="xygrid"
       id="grid4131"
       empspacing="4"
       originx="0"
       originy="0" />
  </sodipodi:namedview>
  <metadata
     id="metadata5">
    <rdf:RDF>
      <cc:Work
         rdf:about="">
        <dc:format>image/svg+xml</dc:format>
        <dc:type
           rdf:resource="http://purl.org/dc/dcmitype/StillImage" />
      </cc:Work>
    </rdf:RDF>
  </metadata>
  <g
     inkscape:label="レイヤー 1"
     inkscape:groupmode="layer"
     id="layer1"
     transform="translate(0,-106.49999)">
    <g
       id="use6023"
       transform="matrix(1.1316198,-0.1995351,0.1995351,1.1316198,-356.0747,-64.760809)"
       style="display:inline">
      <path
         d="m 496.36802,332.53262 c 0.33344,-5.39135 -3.98657,-8.15614 -8.54849,-8.15614 -4.14719,0 -8.36174,2.35007 -8.92328,7.18847 -2.34814,18.93884 -2.93219,20.8742 -8.46178,20.8742 h -1.79712 c -2.4883,0 -3.37132,-0.96768 -3.2141,-2.7648 l 7.43807,-85.01744 c 0.37493,-4.28543 -4.00557,-6.35903 -8.56748,-6.35903 -4.70015,0 -9.44348,2.0736 -9.8184,6.35903 l -8.59914,98.28845 c -1.01593,11.61214 4.33056,16.86526 14.83678,16.86526 h 10.0915 c 14.92989,0 22.2185,-7.46495 25.01231,-39.39834 0.2177,-2.48831 0.4475,-5.11486 0.55113,-7.87966 z m -58.89833,38.01593 4.00324,-45.75736 c 0.49588,-5.66783 -2.44174,-8.43262 -8.80077,-8.43262 h -14.23869 l 1.18525,-13.54749 h 20.45948 c 4.70015,0 7.37677,-3.73248 7.69122,-7.32671 0.32655,-3.73248 -1.70908,-7.3267 -6.40923,-7.3267 h -20.45948 l 1.02803,-11.75039 c 6.68389,-0.55296 13.65635,-1.24415 19.96179,-2.21183 4.20767,-0.6912 6.25878,-3.59424 6.51275,-6.49726 0.35074,-4.00896 -2.3277,-8.15615 -7.30433,-8.15615 -0.55296,0 -1.10592,0 -1.80921,0.13824 -15.87507,2.90303 -39.34645,4.14719 -51.80012,4.28543 -4.97662,0 -7.49082,3.456 -7.78108,6.77374 -0.32655,3.73248 1.83522,7.46495 6.12066,7.46495 h 0.27648 c 4.98871,-0.13824 11.20949,-0.13824 17.74305,-0.55296 l -0.91918,10.50623 h -20.73596 c -4.8384,0 -7.50293,3.59422 -7.82947,7.3267 -0.31445,3.59423 1.70908,7.32671 6.54746,7.32671 h 20.73596 l -1.18524,13.54749 h -13.40926 c -6.35903,0 -9.64219,2.76479 -10.13807,8.43262 l -4.00324,45.75736 c -0.54425,6.22079 2.20676,9.53855 8.56579,9.53855 h 45.61912 c 6.35902,0 9.8288,-3.31776 10.37305,-9.53855 z M 421.37666,353.82154 H 391.9316 l 2.00767,-22.94779 h 29.44506 z"
         id="path6920"
         style="font-weight:bold;font-size:96px;line-height:1.2;font-family:'FOT-Slump Std';-inkscape-font-specification:'FOT-Slump Std Bold';text-align:center;letter-spacing:0px;text-anchor:middle;fill:none;fill-opacity:1;stroke:#36434a;stroke-width:12;stroke-linejoin:round;stroke-dasharray:none;stroke-opacity:1;paint-order:stroke fill markers"
         sodipodi:nodetypes="cscssccscsssscsssccssscccssccsscccsssccssssssccccc" />
      <path
         d="m 496.36802,329.77262 c 0.33344,-5.39135 -3.98657,-8.15614 -8.54849,-8.15614 -4.14719,0 -8.36174,2.35007 -8.92328,7.18847 -2.34814,18.93884 -2.93219,20.8742 -8.46178,20.8742 h -1.79712 c -2.4883,0 -3.37132,-0.96768 -3.2141,-2.7648 l 7.43807,-85.01744 c 0.37493,-4.28543 -4.00557,-6.35903 -8.56748,-6.35903 -4.70015,0 -9.44348,2.0736 -9.8184,6.35903 l -8.59914,98.28845 c -1.01593,11.61214 4.33056,16.86526 14.83678,16.86526 h 10.0915 c 14.92989,0 22.2185,-7.46495 25.01231,-39.39834 0.2177,-2.4883 0.4475,-5.11486 0.55113,-7.87966 z m -58.89833,38.01593 4.00324,-45.75736 c 0.49588,-5.66783 -2.44174,-8.43262 -8.80077,-8.43262 h -14.23869 l 1.18525,-13.54749 h 20.45948 c 4.70015,0 7.37677,-3.73248 7.69122,-7.32671 0.32655,-3.73248 -1.70908,-7.3267 -6.40923,-7.3267 h -20.45948 l 1.02803,-11.75039 c 6.68389,-0.55296 13.65635,-1.24415 19.96179,-2.21183 4.20767,-0.6912 6.25878,-3.59424 6.51275,-6.49726 0.35074,-4.00896 -2.3277,-8.15615 -7.30433,-8.15615 -0.55296,0 -1.10592,0 -1.80921,0.13824 -15.87507,2.90303 -39.34645,4.14719 -51.80012,4.28543 -4.97662,0 -7.49082,3.456 -7.78108,6.77374 -0.32655,3.73248 1.83522,7.46495 6.12066,7.46495 h 0.27648 c 4.98871,-0.13824 11.20949,-0.13824 17.74305,-0.55296 l -0.91918,10.50623 h -20.73596 c -4.8384,0 -7.50293,3.59422 -7.82947,7.3267 -0.31445,3.59423 1.70908,7.32671 6.54746,7.32671 h 20.73596 l -1.18524,13.54749 h -13.40926 c -6.35903,0 -9.64219,2.76479 -10.13807,8.43262 l -4.00324,45.75736 c -0.54425,6.22079 2.20676,9.53855 8.56579,9.53855 h 45.61912 c 6.35902,0 9.8288,-3.31776 10.37305,-9.53855 z M 421.37666,351.06154 H 391.9316 l 2.00767,-22.94779 h 29.44506 z"
         id="path6922"
         style="font-weight:bold;font-size:96px;line-height:1.2;font-family:'FOT-Slump Std';-inkscape-font-specification:'FOT-Slump Std Bold';text-align:center;letter-spacing:0px;text-anchor:middle;fill:url(#linearGradient6926);fill-opacity:1;stroke-width:11.52;stroke-linejoin:round;paint-order:stroke fill markers"
         sodipodi:nodetypes="cscssccscsssscsssccssscccssccsscccsssccssssssccccc" />
    </g>
    <g
       id="g4195"
       transform="matrix(1.1490768,0,0,1.1490768,-274.18349,-185.62428)"
       style="display:inline">
      <path
         id="path3718"
         style="font-weight:900;font-size:96px;line-height:1.2;font-family:'FOT-MatisseEleganto Pro';-inkscape-font-specification:'FOT-MatisseEleganto Pro Heavy';text-align:center;letter-spacing:0px;text-anchor:middle;fill:none;fill-opacity:1;stroke:#36434a;stroke-width:12;stroke-linejoin:round;stroke-dasharray:none;stroke-opacity:1;paint-order:stroke fill markers"
         d="m 584.12553,382.96872 c -4.05979,0 -7.22598,1.237 -9.50342,3.7125 -2.17842,2.47548 -3.26812,5.54439 -3.26812,9.2081 0,3.56469 1.03964,6.63642 3.11905,9.21091 2.17842,2.47548 5.39466,3.7125 9.65249,3.7125 4.35683,0 7.62593,-1.18977 9.80436,-3.56623 2.27744,-2.37646 3.41718,-5.64275 3.41718,-9.80155 0,-4.1588 -1.18978,-7.27777 -3.56626,-9.35717 -2.37644,-2.07941 -5.59551,-3.11906 -9.65528,-3.11906 z m 27.94775,0 c -4.05976,0 -7.22599,1.237 -9.50342,3.7125 -2.17842,2.47548 -3.26811,5.54439 -3.26811,9.2081 0,3.56469 1.03966,6.63642 3.11905,9.21091 2.17843,2.47548 5.39466,3.7125 9.65248,3.7125 4.35684,0 7.62594,-1.18977 9.80436,-3.56623 2.27745,-2.37646 3.41718,-5.64275 3.41718,-9.80155 0,-4.1588 -1.18977,-7.27777 -3.56624,-9.35717 -2.37647,-2.07941 -5.59549,-3.11906 -9.6553,-3.11906 z m 28.24589,0.14906 c -4.05977,0 -7.27884,1.13693 -9.65528,3.41436 -2.27745,2.27744 -3.41439,5.05175 -3.41439,8.31937 0,3.16859 0.88953,5.7928 2.67187,7.87217 1.88136,1.98038 3.96068,3.36471 6.23812,4.15687 l 7.12967,-6.38717 c 3.77863,1.37527 3.77518,6.38668 0.65251,10.1081 -1.46091,1.74104 -2.90433,2.99297 -4.85436,4.15968 h -62.44864 c -1.79712,-3.31776 -4.00944,-6.2196 -6.22123,-8.56966 -0.6912,-0.6912 -1.52224,-1.10532 -2.21344,-1.10532 -0.96768,0 -1.65938,0.6904 -1.65938,2.0728 -0.27648,12.71801 -7.87775,8.84846 -12.43967,17.83404 -0.96768,1.93535 -1.38374,3.8701 -1.38374,5.66717 0,6.91199 5.94393,12.30185 12.85592,12.30185 3.31775,0 6.91214,-1.3804 9.95341,-4.28343 2.48832,-2.48827 3.87109,-5.2532 4.42405,-8.15623 0.27648,1.93535 1.24467,5.11379 1.65939,5.80499 0.55296,1.10592 1.79657,1.51959 2.90248,1.24311 2.76479,-0.82944 8.43207,-1.1053 13.82341,-1.1053 h 23.08777 c -2.90299,4.42366 -5.66688,8.57138 -9.39936,12.58029 -3.8707,-0.27648 -7.46705,-0.69145 -10.23185,-0.82969 h -0.27563 c -0.82939,0 -1.1053,0.27673 -1.1053,0.82969 0,0.6912 0.41257,1.79767 0.68905,3.45655 0.27648,1.93536 0.41625,4.4242 0.41625,8.01842 h -29.58463 c -5.11483,0 -12.71655,-0.55305 -16.8637,-1.79718 -0.55296,-0.13822 -0.96666,-0.13779 -1.24314,-0.13779 -0.82944,0 -1.10616,0.27501 -0.82968,1.38093 0.41472,1.52064 1.65766,5.39096 2.21062,6.49688 0.55296,1.10587 1.79657,1.5224 2.90249,1.24592 2.76479,-0.82944 8.4321,-1.10812 13.82341,-1.10812 h 29.58463 c 0,9.95322 0.76419,25.36411 -0.23625,28.50182 -1.02709,3.22138 -2.94804,4.83749 -5.80498,4.83749 -2.7648,0 -4.65346,-0.87584 -5.66717,-2.62687 -1.10592,-1.75104 -0.92332,-3.87073 0.55124,-6.35905 h 5.25375 c 0.55296,-2.21183 0.82968,-4.51415 0.82968,-6.9103 0,-2.39616 -0.87583,-4.61001 -2.62687,-6.63748 -1.84319,-1.93536 -4.56204,-2.9025 -8.15624,-2.9025 -3.59422,0 -6.58977,1.06129 -8.98592,3.18092 -2.39616,2.21184 -3.59437,5.34433 -3.59437,9.39937 0,4.05503 1.98598,8.83415 5.39155,12.08529 3.35497,3.20277 9.07946,6.00186 16.72873,6.00186 11.79642,0 20.59987,-1.20914 26.67932,-8.45437 6.22044,-7.41319 7.00874,-15.002 7.00874,-30.11618 h 46.31053 c 2.48832,0 2.90199,-2.9006 1.24312,-4.42124 -5.80602,-5.39135 -12.71634,-10.78325 -17.83121,-14.37749 -0.6912,-0.4147 -1.38442,-0.69187 -2.07562,-0.69187 -0.82944,0 -1.6581,0.27717 -2.07282,0.69187 -3.45595,3.04128 -8.70807,8.15442 -12.16402,11.47218 -0.96768,0.82944 -1.66073,1.24593 -3.04312,1.24593 h -10.22905 v -1.10812 c 0,-1.24416 0.83089,-2.07348 3.18093,-2.76468 1.7971,-0.55296 2.62687,-1.65876 2.62687,-2.76468 0,-1.10592 -0.83017,-2.20981 -2.48905,-2.48624 -1.3824,-0.27648 -3.18015,-0.41539 -5.25375,-0.69187 6.22079,-1.79712 11.61175,-3.73294 17.41777,-6.22126 1.10592,-0.55296 1.93636,-0.69186 3.31876,-0.69186 1.10592,0 2.62566,0.14011 4.8375,0.27842 h 0.55405 c 3.04127,0 4.56186,-2.0744 4.56186,-4.28624 0,-1.65887 -0.6928,-3.31812 -2.21343,-4.42404 7.60319,-3.456 9.95398,-5.39155 13.40998,-5.39155 0.55296,0 1.10645,-4.3e-4 1.65936,0.13781 0.55296,0 0.96861,0.13781 1.52157,0.13781 3.87068,0 6.63467,-2.21205 6.63467,-5.39155 0,-1.79712 -0.96866,-4.00901 -3.31874,-6.35906 -3.59423,-3.59422 -9.39821,-8.98453 -13.40717,-12.16403 -0.6912,-0.55296 -1.5218,-0.82968 -2.35124,-0.82968 -0.82944,0 -1.66005,0.27672 -2.35125,0.82968 -2.90302,2.35006 -5.94397,5.11514 -8.29405,7.18874 -1.10592,0.96767 -1.93464,1.24312 -3.86998,1.24312 h -0.36844 c 0.79393,-0.66183 1.52162,-1.32022 2.15718,-1.94907 6.7947,-6.72285 9.83269,-17.30553 3.42563,-24.9412 -2.62428,-3.1275 -5.94089,-4.75312 -10.09968,-4.75312 z m -61.19426,37.72681 h 69.25768 c -0.55296,2.62656 -1.1036,5.80658 -1.65656,8.01842 -3.04123,-2.0736 -6.08287,-4.0083 -8.98591,-5.66718 -1.24416,-0.6912 -3.18033,-0.6912 -4.28625,0 -3.1795,1.79712 -7.46468,4.56151 -10.09124,6.49686 -0.82943,0.55296 -1.93676,0.69188 -3.18092,0.69188 h -21.84184 c -5.11486,0 -12.71653,-0.55303 -16.86371,-1.79719 -0.41472,-0.13824 -0.82841,-0.14069 -1.24313,-0.14054 0,-2.0736 -0.41692,-5.52858 -1.10812,-7.60218 z" />
      <path
         id="path1393"
         style="font-weight:900;font-size:96px;line-height:1.2;font-family:'FOT-MatisseEleganto Pro';-inkscape-font-specification:'FOT-MatisseEleganto Pro Heavy';text-align:center;letter-spacing:0px;text-anchor:middle;fill:url(#linearGradient2262);fill-opacity:1;stroke-width:11.52;stroke-linejoin:round;paint-order:stroke fill markers"
         d="m 584.12553,380.20872 c -4.05979,0 -7.22598,1.237 -9.50342,3.7125 -2.17842,2.47548 -3.26812,5.54439 -3.26812,9.2081 0,3.56469 1.03964,6.63642 3.11905,9.21091 2.17842,2.47548 5.39466,3.7125 9.65249,3.7125 4.35683,0 7.62593,-1.18977 9.80436,-3.56623 2.27744,-2.37646 3.41718,-5.64275 3.41718,-9.80155 0,-4.15879 -1.18978,-7.27777 -3.56626,-9.35717 -2.37644,-2.07941 -5.59551,-3.11906 -9.65528,-3.11906 z m 27.94775,0 c -4.05976,0 -7.22599,1.237 -9.50342,3.7125 -2.17842,2.47548 -3.26811,5.54439 -3.26811,9.2081 0,3.56469 1.03966,6.63642 3.11905,9.21091 2.17843,2.47548 5.39466,3.7125 9.65248,3.7125 4.35684,0 7.62594,-1.18977 9.80436,-3.56623 2.27745,-2.37646 3.41718,-5.64275 3.41718,-9.80155 0,-4.15879 -1.18977,-7.27777 -3.56624,-9.35717 -2.37647,-2.07941 -5.59549,-3.11906 -9.6553,-3.11906 z m 28.24589,0.14906 c -4.05977,0 -7.27884,1.13693 -9.65528,3.41436 -2.27745,2.27744 -3.41439,5.05175 -3.41439,8.31937 0,3.16859 0.88953,5.7928 2.67187,7.87217 1.88136,1.98038 3.96068,3.36471 6.23812,4.15687 l 7.12967,-6.38717 c 3.77863,1.37527 3.77518,6.38668 0.65251,10.1081 -1.46091,1.74104 -2.90433,2.99297 -4.85436,4.15968 h -62.44864 c -1.79712,-3.31776 -4.00944,-6.2196 -6.22123,-8.56966 -0.6912,-0.6912 -1.52224,-1.10532 -2.21344,-1.10532 -0.96768,0 -1.65938,0.69041 -1.65938,2.0728 -0.27648,12.71801 -7.87775,8.84846 -12.43967,17.83404 -0.96768,1.93535 -1.38374,3.8701 -1.38374,5.66717 0,6.91199 5.94393,12.30185 12.85592,12.30185 3.31775,0 6.91214,-1.3804 9.95341,-4.28343 2.48832,-2.48827 3.87109,-5.2532 4.42405,-8.15623 0.27648,1.93535 1.24467,5.11379 1.65939,5.80499 0.55296,1.10592 1.79657,1.51959 2.90248,1.24311 2.76479,-0.82944 8.43207,-1.1053 13.82341,-1.1053 h 23.08777 c -2.90299,4.42366 -5.66688,8.57138 -9.39936,12.58029 -3.8707,-0.27648 -7.46705,-0.69145 -10.23185,-0.82969 h -0.27563 c -0.82939,0 -1.1053,0.27673 -1.1053,0.82969 0,0.6912 0.41257,1.79767 0.68905,3.45655 0.27648,1.93536 0.41625,4.4242 0.41625,8.01842 h -29.58463 c -5.11483,0 -12.71655,-0.55305 -16.8637,-1.79717 -0.55296,-0.13823 -0.96666,-0.1378 -1.24314,-0.1378 -0.82944,0 -1.10616,0.27502 -0.82968,1.38093 0.41472,1.52064 1.65766,5.39096 2.21062,6.49688 0.55296,1.10587 1.79657,1.5224 2.90249,1.24592 2.76479,-0.82944 8.4321,-1.10812 13.82341,-1.10812 h 29.58463 c 0,9.95322 0.76419,25.36411 -0.23625,28.50182 -1.02709,3.22138 -2.94804,4.83749 -5.80498,4.83749 -2.7648,0 -4.65346,-0.87584 -5.66717,-2.62687 -1.10592,-1.75104 -0.92332,-3.87073 0.55124,-6.35905 h 5.25375 c 0.55296,-2.21183 0.82968,-4.51415 0.82968,-6.9103 0,-2.39616 -0.87583,-4.61001 -2.62687,-6.63748 -1.84319,-1.93536 -4.56204,-2.9025 -8.15624,-2.9025 -3.59422,0 -6.58977,1.06129 -8.98592,3.18092 -2.39616,2.21184 -3.59437,5.34433 -3.59437,9.39937 0,4.05503 1.98598,8.83415 5.39155,12.08529 3.35497,3.20277 9.07946,6.00186 16.72873,6.00186 11.79642,0 20.59987,-1.20914 26.67932,-8.45437 6.22044,-7.41319 7.00874,-15.002 7.00874,-30.11618 h 46.31053 c 2.48832,0 2.90199,-2.9006 1.24312,-4.42124 -5.80602,-5.39135 -12.71634,-10.78325 -17.83121,-14.37749 -0.6912,-0.4147 -1.38442,-0.69187 -2.07562,-0.69187 -0.82944,0 -1.6581,0.27717 -2.07282,0.69187 -3.45595,3.04128 -8.70807,8.15442 -12.16402,11.47218 -0.96768,0.82944 -1.66073,1.24593 -3.04312,1.24593 h -10.22905 v -1.10812 c 0,-1.24416 0.83089,-2.07348 3.18093,-2.76468 1.7971,-0.55296 2.62687,-1.65876 2.62687,-2.76468 0,-1.10592 -0.83017,-2.20981 -2.48905,-2.48624 -1.3824,-0.27648 -3.18015,-0.41539 -5.25375,-0.69187 6.22079,-1.79712 11.61175,-3.73294 17.41777,-6.22126 1.10592,-0.55296 1.93636,-0.69186 3.31876,-0.69186 1.10592,0 2.62566,0.14011 4.8375,0.27843 h 0.55405 c 3.04127,0 4.56186,-2.07441 4.56186,-4.28625 0,-1.65887 -0.6928,-3.31812 -2.21343,-4.42404 7.60319,-3.456 9.95398,-5.39155 13.40998,-5.39155 0.55296,0 1.10645,-4.3e-4 1.65936,0.13781 0.55296,0 0.96861,0.13781 1.52157,0.13781 3.87068,0 6.63467,-2.21205 6.63467,-5.39155 0,-1.79712 -0.96866,-4.00901 -3.31874,-6.35905 -3.59423,-3.59423 -9.39821,-8.98454 -13.40717,-12.16404 -0.6912,-0.55296 -1.5218,-0.82968 -2.35124,-0.82968 -0.82944,0 -1.66005,0.27672 -2.35125,0.82968 -2.90302,2.35006 -5.94397,5.11514 -8.29405,7.18874 -1.10592,0.96767 -1.93464,1.24312 -3.86998,1.24312 h -0.36844 c 0.79393,-0.66183 1.52162,-1.32022 2.15718,-1.94907 6.7947,-6.72285 9.83269,-17.30553 3.42563,-24.9412 -2.62428,-3.1275 -5.94089,-4.75312 -10.09968,-4.75312 z m -61.19426,37.72681 h 69.25768 c -0.55296,2.62656 -1.1036,5.80658 -1.65656,8.01842 -3.04123,-2.0736 -6.08287,-4.0083 -8.98591,-5.66718 -1.24416,-0.6912 -3.18033,-0.6912 -4.28625,0 -3.1795,1.79712 -7.46468,4.56151 -10.09124,6.49686 -0.82943,0.55296 -1.93676,0.69188 -3.18092,0.69188 h -21.84184 c -5.11486,0 -12.71653,-0.55303 -16.86371,-1.79719 -0.41472,-0.13824 -0.82841,-0.14069 -1.24313,-0.14054 0,-2.0736 -0.41692,-5.52858 -1.10812,-7.60218 z" />
      <g
         aria-label="TM"
         id="text22591"
         style="font-weight:bold;font-stretch:semi-condensed;font-size:10px;font-family:BarlowXSugo;-inkscape-font-specification:'BarlowXSugo, Bold Semi-Condensed';letter-spacing:0px;word-spacing:0px;fill:#b0bec5;stroke:#36434a;stroke-width:5.02068;stroke-linecap:round;stroke-linejoin:round;paint-order:stroke fill markers">
        <g
           id="path12187">
          <path
             id="path12194"
             style="color:#000000;-inkscape-font-specification:'BarlowXSugo, Bold Semi-Condensed';fill:#36434a;stroke:none;stroke-linecap:butt;stroke-linejoin:miter;-inkscape-stroke:none"
             d="M 632.2109 464.70326 C 630.9455 464.70327 629.58141 466.06906 629.58141 467.33445 L 629.58141 468.3118 C 629.58141 469.227 630.34603 470.01367 631.21996 470.47896 L 631.21996 474.09429 C 631.21996 475.35969 632.58575 476.72208 633.85115 476.72208 L 635.02226 476.72208 C 635.48637 476.72208 635.96163 476.53748 636.38035 476.24276 C 636.79935 476.53795 637.27731 476.72208 637.74184 476.72208 L 638.91295 476.72208 C 639.37446 476.72208 639.7997 476.40226 640.21665 476.11018 C 640.63359 476.40226 641.06054 476.72208 641.52205 476.72208 L 642.69146 476.72208 C 643.95685 476.72208 645.32265 475.35969 645.32265 474.09429 L 645.32265 467.33445 C 645.32265 466.06906 643.95685 464.70327 642.69146 464.70326 L 641.54074 464.70326 C 641.07118 464.70327 640.62433 464.81922 640.21665 465.04831 C 639.80895 464.8192 639.36214 464.70326 638.89256 464.70326 L 637.74184 464.70326 C 637.57059 464.70326 637.39809 464.72997 637.22682 464.77635 C 637.05554 464.72997 636.88134 464.70326 636.7101 464.70326 L 632.2109 464.70326 z " />
          <path
             id="path12196"
             style="color:#000000;-inkscape-font-specification:'BarlowXSugo, Bold Semi-Condensed';stroke:none;stroke-linecap:butt;stroke-linejoin:miter;-inkscape-stroke:none"
             d="M 632.2109 467.21377 C 632.1409 467.21377 632.09192 467.26275 632.09192 467.33275 L 632.09192 468.3135 C 632.09192 468.3835 632.1409 468.43248 632.2109 468.43248 L 633.68117 468.43248 C 633.71117 468.43248 633.73216 468.45347 633.73216 468.48347 L 633.73216 474.09259 C 633.73216 474.16259 633.78115 474.21328 633.85115 474.21328 L 635.02226 474.21328 C 635.09226 474.21328 635.14124 474.16259 635.14124 474.09259 L 635.14124 468.48347 C 635.14124 468.45347 635.16224 468.43248 635.19224 468.43248 L 636.7118 468.43248 C 636.7818 468.43248 636.83078 468.3835 636.83078 468.3135 L 636.83078 467.33275 C 636.83078 467.26275 636.7818 467.21377 636.7118 467.21377 L 632.2109 467.21377 z M 637.74184 467.21377 C 637.67184 467.21377 637.62116 467.26275 637.62116 467.33275 L 637.62116 474.09259 C 637.62116 474.16259 637.67184 474.21328 637.74184 474.21328 L 638.91125 474.21328 C 638.98125 474.21328 639.03194 474.16259 639.03194 474.09259 L 639.03194 469.75317 C 639.03194 469.70317 639.07143 469.69278 639.09143 469.73278 L 639.892 471.22344 C 639.922 471.28344 639.98158 471.30333 640.04158 471.30333 L 640.38152 471.30333 C 640.44152 471.30333 640.5011 471.27344 640.5311 471.22344 L 641.34187 469.74297 C 641.36187 469.70297 641.40136 469.70317 641.40136 469.75317 L 641.40136 474.09259 C 641.40136 474.16259 641.45205 474.21328 641.52205 474.21328 L 642.69146 474.21328 C 642.76146 474.21328 642.81214 474.16259 642.81214 474.09259 L 642.81214 467.33275 C 642.81214 467.26275 642.76146 467.21377 642.69146 467.21377 L 641.54244 467.21377 C 641.48244 467.21377 641.42117 467.24366 641.39117 467.29366 L 640.24215 469.38263 C 640.22215 469.41263 640.20096 469.41263 640.18096 469.38263 L 639.04213 467.29366 C 639.01213 467.24366 638.95086 467.21377 638.89086 467.21377 L 637.74184 467.21377 z " />
        </g>
        <g
           id="path12189" />
      </g>
    </g>
    <g
       id="use6025"
       transform="matrix(1.1316198,-0.1995351,0.1995351,1.1316198,-356.0747,-64.760809)"
       style="display:inline">
      <path
         id="path6914"
         style="fill:none;fill-opacity:1;stroke:#36434a;stroke-width:12;stroke-linejoin:round;stroke-dasharray:none;stroke-opacity:1;paint-order:stroke fill markers;stop-color:#000000"
         d="m 526.06157,381.40778 c -3.15588,0 -5.69473,0.80792 -7.61904,2.42437 -0.87527,0.77025 -1.55066,1.59611 -2.02782,2.47782 -0.0318,-0.006 -0.0517,-0.0194 -0.0844,-0.0253 -6.91199,-1.24416 -17.14107,-2.6256 -22.94715,-3.04031 h -0.69187 c -1.24416,0 -1.52155,0.41368 -1.52155,1.24312 0,0.41472 0.14068,0.96818 0.14068,1.65938 v 1.24312 c 0,6.77369 -0.968,17.00412 -2.62687,27.09556 -0.96768,-1.10592 -0.83165,-5.25387 -1.10813,-8.8481 -0.13824,-1.24416 -0.82712,-1.79719 -1.65655,-1.79719 -0.82944,0 -1.65895,0.55346 -1.79719,1.65938 -1.24416,7.18841 -1.24576,9.67737 -2.21344,9.81561 H 481.357 c -0.96768,0 -1.24595,-0.69084 -1.24595,-1.935 v -6.22125 c 0,-1.38239 0.69151,-2.48807 2.62687,-3.73216 1.52064,-0.96768 2.35126,-2.07263 2.35126,-3.04031 0,-1.10592 -0.83104,-2.21283 -2.21344,-3.31875 -2.76478,-2.0736 -7.32729,-4.56084 -9.8156,-5.80498 -1.65888,-0.82944 -2.76451,-0.82944 -3.73219,0 -1.79712,1.38238 -3.87091,3.31726 -5.39155,4.69966 -0.82944,0.6912 -1.24252,1.24271 -2.34844,1.38095 0.13824,-0.82944 0.13781,-1.79743 0.13781,-2.62687 0.13824,-3.04128 0.69177,-3.59419 3.45655,-4.56187 1.52064,-0.55296 2.34844,-1.52095 2.34844,-2.62687 0,-1.10592 -0.96757,-2.20977 -2.76469,-2.48625 -5.25305,-0.6912 -18.9366,-1.79914 -25.29557,-2.07562 h -0.41624 c -1.24416,0 -1.65938,0.41692 -1.65938,1.10812 0,0.55296 0.27758,1.38039 0.55406,2.48625 0.55296,1.93535 0.82968,5.94556 0.82968,10.50748 -3.17951,-0.27648 -6.36022,-0.83036 -8.7103,-1.52156 -0.55296,-0.13824 -0.96663,-0.13781 -1.24311,-0.13781 -0.82944,0 -1.10617,0.27783 -0.82969,1.38375 0.41472,1.52062 1.65771,5.39094 2.21061,6.49686 0.55296,1.10591 1.79939,1.51959 2.90531,1.24311 1.3824,-0.41471 3.45578,-0.69144 5.52937,-0.82968 0,5.80607 -0.41649,11.3373 -1.24593,14.93154 -1.79712,8.57087 -5.80403,17.14059 -8.8453,21.28778 -0.55296,0.69114 -0.69187,1.24465 -0.69187,1.65937 0,0.82943 0.6893,1.38093 1.51874,1.38093 0.27648,0 0.41539,-0.13781 0.69187,-0.13781 4.70015,-0.96768 11.88778,-3.45583 17.55561,-7.32655 0.41472,2.35008 0.41581,7.05117 0.55405,12.44247 h -1.38093 c -5.11488,0 -12.3059,-0.55302 -16.4531,-1.79718 -0.55296,-0.13824 -0.82883,-0.13781 -1.10531,-0.13781 -0.41472,0 -0.55124,0.13695 -0.55124,0.41344 0,0.27648 -4.3e-4,0.55279 0.13781,0.96751 0.41472,1.52064 1.51983,5.39095 2.07279,6.49686 0.55296,1.10592 1.52097,1.52242 2.62688,1.24594 2.0736,-0.55296 6.35834,-0.96749 10.22905,-0.96749 -2.90303,12.16503 -9.95149,26.95577 -16.03404,37.60024 -0.13824,0.41466 -0.27844,0.69058 -0.27844,1.1053 0,0.82944 0.55432,1.38375 1.38376,1.38375 0.27648,0 0.55278,-0.14025 0.9675,-0.27845 5.66778,-2.4883 13.40869,-7.04959 18.38527,-12.02621 0,3.17951 -0.13738,6.35851 -0.27562,9.26153 -0.13824,2.90304 -0.27758,5.66836 -0.55406,8.01843 v 0.82969 c 0,3.87071 3.17985,5.25374 8.98592,5.25374 1.10592,0 2.35021,3.7e-4 3.59436,-0.13781 7.05018,-0.41472 12.16405,-1.24461 12.16405,-6.22125 v -0.13781 c -0.19453,-4.92791 -0.32389,-10.57769 -0.41063,-16.37715 1.69021,0.94939 3.77099,1.51311 6.28312,1.51311 5.74552,0 10.53601,-2.31883 12.92622,-7.48404 -0.13724,8.91043 -0.27677,17.14047 -0.55125,23.4534 v 0.27562 c 0,3.8707 3.04338,5.11593 8.43467,5.11593 0.82944,0 1.79658,-0.13781 2.9025,-0.13781 8.01784,-0.27648 11.47498,-1.65823 11.47498,-5.66718 v -2.48906 h 38.01367 c 1.3824,0 1.79719,-0.82908 1.79719,-1.935 0,-0.6912 -0.13651,-1.66004 -0.55125,-2.35124 -2.48831,-4.83839 -6.91258,-11.74988 -9.81561,-15.6206 -0.41472,-0.55296 -1.10598,-0.82968 -1.79718,-0.82968 -0.82944,0 -1.52028,0.27672 -1.935,0.82968 -0.96768,1.52064 -2.34978,3.5932 -3.73218,5.80498 v -16.45027 h 12.43966 c 1.52064,0 2.21343,-0.9669 2.21343,-2.07282 0,-0.82944 -0.27672,-1.66004 -0.82968,-2.35124 -2.62656,-3.87071 -6.4987,-8.70805 -9.53998,-12.16404 -0.55295,-0.55296 -1.24379,-0.82969 -1.93499,-0.82969 -0.55296,0 -1.10404,0.27673 -1.51876,0.82969 -0.27648,0.41472 -0.5532,0.82798 -0.82968,1.38094 v -11.88841 h 12.43966 c 1.52064,0 2.07563,-0.96689 2.07563,-2.07281 0,-0.82944 -0.27716,-1.65724 -0.69188,-2.34844 -2.48832,-3.8707 -6.4987,-8.71085 -9.53998,-12.16684 -0.55295,-0.55296 -1.24379,-0.82969 -1.93499,-0.82969 -0.55296,0 -1.10404,0.27673 -1.51876,0.82969 l -0.82968,1.24592 c 0,-3.04128 0.13781,-6.22308 0.13781,-9.26434 h 14.23966 c 1.52064,0 2.21062,-1.10471 2.21062,-2.21063 0,-0.6912 -0.27715,-1.51985 -0.69187,-2.07281 -3.17952,-4.28543 -7.32559,-9.81618 -10.36686,-13.27217 -0.55296,-0.55296 -1.24422,-0.82968 -1.79718,-0.82968 -0.6912,0 -1.38202,0.27672 -1.93498,0.82968 -1.93536,2.7648 -4.97777,7.05039 -6.91313,9.95343 -0.69114,1.24414 -1.38228,1.65937 -2.76468,1.65937 h -3.73217 -0.26438 c 2.32794,-1.09667 4.29451,-2.45515 5.92593,-4.08655 4.72535,-4.72536 6.81186,-7.63613 6.81186,-12.58593 0,-3.07892 -0.84629,-5.65889 -2.53969,-7.73717 -1.77038,-2.00129 -4.23533,-3.00093 -7.39123,-3.00093 z m -10.4231,10.25718 c 0.12773,1.48675 0.40614,2.80457 0.84093,3.94592 h 3.69562 c 0.46184,1.23157 0.69188,2.65294 0.69188,4.26936 0,1.61643 -0.76961,4.09368 -2.30907,5.86406 -1.20813,1.38936 -2.95681,2.35169 -5.20591,3.07407 h -4.34812 c 1.65887,-4.56192 3.0425,-9.53825 4.14842,-14.65312 0.25192,-1.51143 1.00496,-2.08299 2.48625,-2.50029 z m -54.32614,11.76186 h 1.38092 c 0.13824,3.0412 0.13824,12.99306 0,18.66089 v 0.41625 c 0,7.46495 3.45659,9.5387 9.81562,9.95341 0.82944,0 1.797,0.13781 2.76468,0.13781 3.45598,0 7.32619,-0.41538 9.26153,-0.69186 -0.55296,1.9353 -1.2438,4.56156 -1.93498,6.49686 -0.41472,-0.27648 -1.10642,-0.55126 -1.65938,-0.55126 -0.55296,0 -1.10446,0.27716 -1.38094,0.69188 -2.21183,2.76479 -4.28679,6.35783 -5.94561,8.56967 -0.41472,0.55296 -1.38204,0.69144 -1.93498,0.82968 0,-2.07354 0.1378,-3.87091 0.1378,-5.39155 0,-1.65888 0.69267,-2.21086 3.18093,-3.0403 1.65887,-0.55296 2.34843,-1.65919 2.34843,-2.62687 0,-1.24416 -0.968,-2.35039 -2.62687,-2.62687 -7.87962,-1.24416 -14.78953,-2.07306 -22.53089,-2.9025 1.10591,-1.10592 2.0731,-2.49041 2.90248,-3.87279 3.73248,-6.49728 5.53006,-14.2375 6.22126,-24.05245 z m 51.56146,11.33434 h 4.0106 c 0.13824,6.22075 0.27564,12.44293 0.27564,18.66372 h -4.28624 z m -21.70403,22.39589 v 6.7725 3.59436 c -1.65888,-2.0736 -3.45423,-4.14611 -5.11311,-5.80499 1.79712,-1.52064 3.59247,-3.04123 5.11311,-4.56187 z m 21.56621,2.21063 h 4.42406 v 21.15276 h -4.28624 c 0,-7.0502 4.2e-4,-14.10256 -0.13781,-21.15276 z m -41.19462,14.65591 h 19.62841 c 0,2.78246 6.4e-4,5.59802 -0.0168,8.41497 -1.44987,-2.21179 -4.04334,-3.32155 -7.78498,-3.32155 -2.69922,-10e-6 -4.93761,0.74706 -6.71343,2.23875 -1.77579,1.56269 -2.66343,3.37379 -2.66343,5.43375 0,2.13097 0.28393,3.94204 0.85219,5.43374 h 2.66344 c 0.42618,1.20754 0.63843,2.37908 0.63843,3.5156 0,1.20755 -0.97421,2.21625 -2.25281,2.21625 -2.23618,0 -3.97509,-1.97985 -4.29187,-6.15373 -0.018,-3.00072 -0.059,-6.08631 -0.059,-8.93249 z m 41.33244,12.43966 h 4.28624 c -0.13824,7.87964 -0.13737,16.03566 -0.27564,24.60653 h -3.87279 c 0,-7.46495 -0.13781,-15.89745 -0.13781,-24.60653 z"
         sodipodi:nodetypes="sccccssssccsccssscscscccccsccsscccscsccccsscccscsscscccssccscsscsccsccsscscsscsscccssccscccssccscccssccsccsccsscscccsscccccccscsccscscsssccccccccccccccccccccccscsccsscscccccc" />
      <path
         id="path6916"
         style="fill:url(#linearGradient7339);fill-opacity:1;stroke-width:11.52;stroke-linejoin:round;paint-order:stroke fill markers;stop-color:#000000"
         d="m 526.06157,378.64778 c -3.15588,0 -5.69473,0.80792 -7.61904,2.42437 -0.87527,0.77025 -1.55066,1.59611 -2.02782,2.47782 -0.0318,-0.006 -0.0517,-0.0194 -0.0844,-0.0253 -6.91199,-1.24416 -17.14107,-2.6256 -22.94715,-3.04031 h -0.69187 c -1.24416,0 -1.52155,0.41368 -1.52155,1.24312 0,0.41472 0.14068,0.96818 0.14068,1.65938 v 1.24312 c 0,6.77369 -0.968,17.00412 -2.62687,27.09556 -0.96768,-1.10592 -0.83165,-5.25387 -1.10813,-8.8481 -0.13824,-1.24416 -0.82712,-1.79719 -1.65655,-1.79719 -0.82944,0 -1.65895,0.55346 -1.79719,1.65938 -1.24416,7.18841 -1.24576,9.67737 -2.21344,9.81561 H 481.357 c -0.96768,0 -1.24595,-0.69084 -1.24595,-1.935 v -6.22125 c 0,-1.38238 0.69151,-2.48806 2.62687,-3.73216 1.52064,-0.96768 2.35126,-2.07263 2.35126,-3.04031 0,-1.10592 -0.83104,-2.21283 -2.21344,-3.31875 -2.76478,-2.0736 -7.32729,-4.56083 -9.8156,-5.80498 -1.65888,-0.82944 -2.76451,-0.82944 -3.73219,0 -1.79712,1.38239 -3.87091,3.31726 -5.39155,4.69966 -0.82944,0.6912 -1.24252,1.24271 -2.34844,1.38095 0.13824,-0.82944 0.13781,-1.79743 0.13781,-2.62687 0.13824,-3.04128 0.69177,-3.59419 3.45655,-4.56187 1.52064,-0.55296 2.34844,-1.52095 2.34844,-2.62687 0,-1.10592 -0.96757,-2.20977 -2.76469,-2.48625 -5.25305,-0.6912 -18.9366,-1.79914 -25.29557,-2.07562 h -0.41624 c -1.24416,0 -1.65938,0.41692 -1.65938,1.10812 0,0.55296 0.27758,1.38039 0.55406,2.48625 0.55296,1.93535 0.82968,5.94557 0.82968,10.50748 -3.17951,-0.27648 -6.36022,-0.83036 -8.7103,-1.52156 -0.55296,-0.13824 -0.96663,-0.13781 -1.24311,-0.13781 -0.82944,0 -1.10617,0.27783 -0.82969,1.38375 0.41472,1.52062 1.65771,5.39094 2.21061,6.49686 0.55296,1.10592 1.79939,1.51959 2.90531,1.24311 1.3824,-0.41471 3.45578,-0.69144 5.52937,-0.82968 0,5.80607 -0.41649,11.3373 -1.24593,14.93154 -1.79712,8.57087 -5.80403,17.14059 -8.8453,21.28778 -0.55296,0.69114 -0.69187,1.24465 -0.69187,1.65937 0,0.82943 0.6893,1.38093 1.51874,1.38093 0.27648,0 0.41539,-0.13781 0.69187,-0.13781 4.70015,-0.96768 11.88778,-3.45583 17.55561,-7.32655 0.41472,2.35008 0.41581,7.05117 0.55405,12.44247 h -1.38093 c -5.11488,0 -12.3059,-0.55302 -16.4531,-1.79718 -0.55296,-0.13824 -0.82883,-0.13781 -1.10531,-0.13781 -0.41472,0 -0.55124,0.13695 -0.55124,0.41344 0,0.27648 -4.3e-4,0.55279 0.13781,0.96751 0.41472,1.52064 1.51983,5.39095 2.07279,6.49686 0.55296,1.10592 1.52097,1.52242 2.62688,1.24594 2.0736,-0.55296 6.35834,-0.96749 10.22905,-0.96749 -2.90303,12.16503 -9.95149,26.95577 -16.03404,37.60024 -0.13824,0.41466 -0.27844,0.69058 -0.27844,1.1053 0,0.82944 0.55432,1.38375 1.38376,1.38375 0.27648,0 0.55278,-0.14025 0.9675,-0.27845 5.66778,-2.4883 13.40869,-7.04959 18.38527,-12.02621 0,3.17952 -0.13738,6.35851 -0.27562,9.26153 -0.13824,2.90304 -0.27758,5.66836 -0.55406,8.01843 v 0.82969 c 0,3.87071 3.17985,5.25374 8.98592,5.25374 1.10592,0 2.35021,3.7e-4 3.59436,-0.13781 7.05018,-0.41472 12.16405,-1.24461 12.16405,-6.22125 v -0.13781 c -0.19453,-4.92791 -0.32389,-10.57769 -0.41063,-16.37715 1.69021,0.94939 3.77099,1.51311 6.28312,1.51311 5.74552,0 10.53601,-2.31883 12.92622,-7.48404 -0.13724,8.91044 -0.27677,17.14047 -0.55125,23.4534 v 0.27562 c 0,3.8707 3.04338,5.11593 8.43467,5.11593 0.82944,0 1.79658,-0.13781 2.9025,-0.13781 8.01784,-0.27648 11.47498,-1.65823 11.47498,-5.66718 v -2.48906 h 38.01367 c 1.3824,0 1.79719,-0.82908 1.79719,-1.935 0,-0.6912 -0.13651,-1.66004 -0.55125,-2.35124 -2.48831,-4.83839 -6.91258,-11.74988 -9.81561,-15.6206 -0.41472,-0.55296 -1.10598,-0.82968 -1.79718,-0.82968 -0.82944,0 -1.52028,0.27672 -1.935,0.82968 -0.96768,1.52064 -2.34978,3.5932 -3.73218,5.80498 v -16.45027 h 12.43966 c 1.52064,0 2.21343,-0.9669 2.21343,-2.07282 0,-0.82944 -0.27672,-1.66004 -0.82968,-2.35124 -2.62656,-3.87071 -6.4987,-8.70805 -9.53998,-12.16404 -0.55295,-0.55296 -1.24379,-0.82969 -1.93499,-0.82969 -0.55296,0 -1.10404,0.27673 -1.51876,0.82969 -0.27648,0.41472 -0.5532,0.82798 -0.82968,1.38094 v -11.88841 h 12.43966 c 1.52064,0 2.07563,-0.96689 2.07563,-2.07281 0,-0.82944 -0.27716,-1.65724 -0.69188,-2.34844 -2.48832,-3.8707 -6.4987,-8.71085 -9.53998,-12.16684 -0.55295,-0.55296 -1.24379,-0.82969 -1.93499,-0.82969 -0.55296,0 -1.10404,0.27673 -1.51876,0.82969 l -0.82968,1.24592 c 0,-3.04128 0.13781,-6.22308 0.13781,-9.26434 h 14.23966 c 1.52064,0 2.21062,-1.10471 2.21062,-2.21063 0,-0.6912 -0.27715,-1.51985 -0.69187,-2.07281 -3.17952,-4.28543 -7.32559,-9.81618 -10.36686,-13.27217 -0.55296,-0.55296 -1.24422,-0.82968 -1.79718,-0.82968 -0.6912,0 -1.38202,0.27672 -1.93498,0.82968 -1.93536,2.7648 -4.97777,7.05039 -6.91313,9.95343 -0.69114,1.24414 -1.38228,1.65937 -2.76468,1.65937 h -3.73217 -0.26438 c 2.32794,-1.09667 4.29451,-2.45515 5.92593,-4.08655 4.72535,-4.72536 6.81186,-7.63613 6.81186,-12.58592 0,-3.07893 -0.84629,-5.6589 -2.53969,-7.73718 -1.77038,-2.00129 -4.23533,-3.00093 -7.39123,-3.00093 z m -10.4231,10.25718 c 0.12773,1.48675 0.40614,2.80457 0.84093,3.94592 h 3.69562 c 0.46184,1.23157 0.69188,2.65294 0.69188,4.26936 0,1.61643 -0.76961,4.09368 -2.30907,5.86407 -1.20813,1.38935 -2.95681,2.35168 -5.20591,3.07406 h -4.34812 c 1.65887,-4.56192 3.0425,-9.53825 4.14842,-14.65312 0.25192,-1.51143 1.00496,-2.08299 2.48625,-2.50029 z m -54.32614,11.76186 h 1.38092 c 0.13824,3.0412 0.13824,12.99306 0,18.66089 v 0.41625 c 0,7.46495 3.45659,9.5387 9.81562,9.95341 0.82944,0 1.797,0.13781 2.76468,0.13781 3.45598,0 7.32619,-0.41538 9.26153,-0.69186 -0.55296,1.9353 -1.2438,4.56156 -1.93498,6.49686 -0.41472,-0.27648 -1.10642,-0.55126 -1.65938,-0.55126 -0.55296,0 -1.10446,0.27716 -1.38094,0.69188 -2.21183,2.76479 -4.28679,6.35783 -5.94561,8.56967 -0.41472,0.55296 -1.38204,0.69144 -1.93498,0.82968 0,-2.07354 0.1378,-3.87091 0.1378,-5.39155 0,-1.65888 0.69267,-2.21086 3.18093,-3.0403 1.65887,-0.55296 2.34843,-1.65919 2.34843,-2.62687 0,-1.24416 -0.968,-2.35039 -2.62687,-2.62687 -7.87962,-1.24416 -14.78953,-2.07306 -22.53089,-2.9025 1.10591,-1.10592 2.0731,-2.49041 2.90248,-3.87279 3.73248,-6.49728 5.53006,-14.2375 6.22126,-24.05245 z m 51.56146,11.33434 h 4.0106 c 0.13824,6.22075 0.27564,12.44293 0.27564,18.66372 h -4.28624 z m -21.70403,22.39589 v 6.7725 3.59436 c -1.65888,-2.0736 -3.45423,-4.14611 -5.11311,-5.80499 1.79712,-1.52064 3.59247,-3.04123 5.11311,-4.56187 z m 21.56621,2.21063 h 4.42406 v 21.15276 h -4.28624 c 0,-7.0502 4.2e-4,-14.10256 -0.13781,-21.15276 z m -41.19462,14.65591 h 19.62841 c 0,2.78246 6.4e-4,5.59802 -0.0168,8.41497 -1.44987,-2.21179 -4.04334,-3.32155 -7.78498,-3.32155 -2.69922,-10e-6 -4.93761,0.74706 -6.71343,2.23875 -1.77579,1.56269 -2.66343,3.37379 -2.66343,5.43375 0,2.13097 0.28393,3.94205 0.85219,5.43374 h 2.66344 c 0.42618,1.20754 0.63843,2.37908 0.63843,3.5156 0,1.20755 -0.97421,2.21625 -2.25281,2.21625 -2.23618,0 -3.97509,-1.97985 -4.29187,-6.15373 -0.018,-3.00072 -0.059,-6.08631 -0.059,-8.93249 z m 41.33244,12.43966 h 4.28624 c -0.13824,7.87964 -0.13737,16.03566 -0.27564,24.60653 h -3.87279 c 0,-7.46495 -0.13781,-15.89745 -0.13781,-24.60653 z"
         sodipodi:nodetypes="sccccssssccsccssscscscccccsccsscccscsccccsscccscsscscccssccscsscsccsccsscscsscsscccssccscccssccscccssccsccsccsscscccsscccccccscsccscscsssccccccccccccccccccccccscsccsscscccccc" />
    </g>
    <g
       id="g6009"
       transform="translate(-198.74064,-137.64533)"
       style="display:inline">
      <path
         id="path12259"
         style="color:#000000;-inkscape-font-specification:'VD-LOGO JR Std U Bold';fill:#36434a;-inkscape-stroke:none;paint-order:stroke fill markers"
         d="M 304.11564 595.67657 L 303.65666 600.92071 L 300.43986 637.67266 L 300.43595 637.74493 C 300.21097 641.34432 299.39074 644.0261 298.19181 646.04376 C 298.42229 645.66305 298.35812 645.76495 297.82267 646.4461 L 296.06876 648.67657 L 292.19376 649.25665 L 291.61369 654.34454 L 290.12345 656.24102 L 291.4047 656.18829 L 288.85978 678.53399 L 295.88517 677.89727 C 312.0385 676.43273 324.20676 666.91515 329.58634 651.64532 L 332.32462 643.87384 L 327.90275 643.93634 C 328.22918 642.20531 328.53537 640.45427 328.75626 638.61798 L 329.05705 638.21759 L 332.77775 595.67657 L 304.11564 595.67657 z M 455.79337 595.67657 L 455.33439 600.92071 L 452.11955 637.67266 L 452.11369 637.74493 C 452.00877 639.42433 451.7609 640.91436 451.4008 642.26837 L 449.39689 649.79962 L 453.51408 649.6336 C 453.46358 649.7185 453.42128 649.82498 453.36955 649.90704 C 452.52351 651.2174 451.3349 652.10202 448.17814 652.57501 L 445.17814 653.02423 C 445.63572 652.12895 446.18262 651.32179 446.59611 650.3836 L 450.20548 642.19415 L 444.61564 642.27423 C 445.72178 638.87866 446.67743 635.35057 447.31486 631.53594 L 447.48673 630.52423 L 447.4965 630.45977 C 447.6645 629.32513 447.97589 628.47914 448.39689 627.76251 C 448.40189 627.75351 448.39189 627.76465 448.39689 627.75665 L 452.059 626.86016 L 454.45353 596.54376 L 447.38908 597.50665 C 440.09021 598.50139 433.58762 601.38223 428.51798 606.1043 L 428.50431 606.11798 L 428.49064 606.12969 C 423.37307 610.95896 420.23974 617.55307 419.08244 625.11407 L 419.07853 625.13165 L 418.45158 629.41094 L 418.43791 629.55352 C 418.02171 633.87717 416.29523 637.72728 412.96134 641.59649 L 405.66056 650.0711 C 402.31979 650.78025 398.28022 651.21458 393.41642 651.21368 L 370.15275 650.60626 C 367.61644 650.02385 367.04335 649.42143 366.67423 648.50469 C 366.69863 648.56239 366.61173 648.27117 366.43205 647.63946 L 365.22697 643.40313 L 362.42423 643.44219 C 362.28232 642.12841 362.24564 640.66869 362.44376 638.90704 L 362.45158 638.83477 L 366.2133 595.83868 L 337.55119 595.83868 L 337.0922 601.08282 L 334.04923 635.86016 L 334.04728 635.89337 C 333.68586 640.69973 333.78025 645.13172 334.32267 649.22735 L 335.01212 654.42657 L 338.50822 654.28399 C 339.79114 660.5656 342.33692 666.08496 346.42619 670.32305 C 351.07012 675.13601 357.43199 678.05715 364.80119 679.39923 L 364.79923 679.4168 L 364.89884 679.41876 C 365.4153 679.51166 365.89182 679.66617 366.41837 679.74298 L 372.28556 680.59844 L 372.39689 679.61602 L 392.79337 680.14923 C 415.85927 680.79201 433.63675 672.49686 443.48478 656.18048 L 440.48478 682.50469 L 447.51017 681.86798 C 456.72655 681.03237 464.77683 677.77753 470.87541 672.05548 C 476.97397 666.33341 480.97372 658.39014 483.12345 648.81134 L 484.7172 641.70391 L 479.94962 641.77227 C 480.10955 640.72461 480.28743 639.7186 480.42619 638.62969 L 480.73478 638.21759 L 484.45548 595.67657 L 455.79337 595.67657 z M 489.22892 595.83868 L 488.76994 601.08282 L 485.72892 635.86016 L 485.72501 635.89337 C 485.54339 638.30918 485.56192 640.46259 485.5883 642.43243 L 485.66837 648.33477 L 489.21525 648.19024 C 489.23955 657.65265 491.33338 665.84628 496.17619 672.07501 C 500.87932 678.12408 507.99519 681.80423 516.42814 683.3504 L 516.42423 683.38751 L 516.61369 683.39337 C 517.10339 683.48097 517.54666 683.64094 518.04533 683.71368 L 523.91251 684.56915 L 524.02384 683.58673 L 544.41837 684.11993 C 558.62501 684.51628 570.78284 681.83649 580.43205 675.63946 C 587.64778 671.00529 593.27306 664.43328 597.2465 656.31719 L 603.73283 655.36016 C 608.70376 654.62729 613.23421 652.94927 617.20158 650.49493 L 617.88712 650.0711 L 617.03361 657.55548 L 599.91251 657.10626 L 596.62541 685.97344 L 621.33439 686.61993 L 621.35978 686.61993 C 633.56308 686.82653 643.68366 685.25431 651.76994 681.37188 C 657.84052 678.49662 662.87916 674.69207 666.73283 670.04962 C 668.61482 670.73405 670.90662 671.51824 672.07267 672.02032 L 677.63322 674.41485 L 680.0922 667.76251 L 680.64103 662.95587 L 751.05314 664.79962 L 751.64689 659.48126 L 754.10783 637.87188 L 747.57853 637.96368 L 739.24064 638.08282 L 749.17814 637.68048 L 750.44767 623.22735 L 674.60783 623.22735 L 676.70744 599.23126 L 605.91837 599.23126 L 606.13126 596.54376 L 599.06681 597.50665 C 591.76794 598.50139 585.26534 601.38222 580.19572 606.1043 L 580.18205 606.11798 L 580.16837 606.12969 C 575.05078 610.95896 571.91747 617.55307 570.76017 625.11407 L 570.75626 625.13165 L 570.12931 629.41094 L 570.11564 629.55352 C 569.8801 632.00065 569.2286 634.27752 568.13322 636.51446 L 563.89298 645.17071 L 570.95158 644.88555 C 569.95502 646.49328 568.7864 648.07161 567.24259 649.6043 C 564.06313 652.71312 556.86423 655.18657 545.04337 655.18438 L 521.7797 654.57696 C 519.23969 653.99369 518.6687 653.38855 518.29923 652.46954 C 517.80314 651.18728 517.50291 649.46572 517.56486 647.22149 L 517.72892 641.23321 L 513.99259 641.28594 C 514.00379 640.50371 514.02949 639.72498 514.1215 638.90704 L 514.12931 638.83477 L 517.89103 595.83868 L 489.22892 595.83868 z M 369.45744 599.31134 L 368.99845 604.55743 L 366.89689 628.57696 L 413.98087 628.57696 L 416.54142 599.31134 L 369.45744 599.31134 z M 521.13517 599.31134 L 520.67619 604.55743 L 518.57462 628.57696 L 565.65861 628.57696 L 568.21916 599.31134 L 521.13517 599.31134 z " />
      <g
         aria-label="PRESENTS"
         id="text4309"
         style="font-weight:bold;font-size:32.1742px;font-family:'Barlow Semi Condensed';-inkscape-font-specification:'Barlow Semi Condensed,  Bold';text-align:end;letter-spacing:0px;word-spacing:0px;text-anchor:end;fill:none;stroke:#36434a;stroke-width:5.76915;stroke-linecap:round;stroke-linejoin:round;paint-order:stroke fill markers">
        <path
           id="path12138"
           style="color:#000000;-inkscape-font-specification:'Barlow Semi Condensed,  Bold';fill:#36434a;stroke:none;stroke-linecap:butt;stroke-linejoin:miter;-inkscape-stroke:none"
           d="M 627.31876 531.64923 C 624.79829 531.64923 622.42399 532.35154 620.59611 533.82891 C 620.01502 532.75968 618.83929 531.90704 617.69767 531.90704 L 604.76408 531.90704 C 603.43419 531.90704 602.05775 533.06288 601.63126 534.37188 C 599.95274 532.76817 597.62036 531.87384 595.14494 531.87384 L 587.29337 531.87384 C 586.01781 531.87384 584.6974 532.93805 584.21525 534.18048 C 582.53985 532.69526 580.28585 531.87384 577.89884 531.87384 L 570.11369 531.87384 C 568.51488 531.87384 566.8422 533.54651 566.8422 535.14532 L 566.8422 556.92657 C 566.8422 558.52538 568.51488 560.19805 570.11369 560.19805 L 573.87736 560.19805 C 575.47618 560.19805 577.14884 558.52538 577.14884 556.92657 L 577.14884 551.28594 L 577.89884 551.28594 C 580.18506 551.28594 582.35898 550.56239 584.02384 549.20391 L 584.02384 556.92657 C 584.02384 558.52538 585.69457 560.19805 587.29337 560.19805 L 591.059 560.19805 C 592.44647 560.19805 593.82103 558.93129 594.17814 557.55352 L 594.33439 557.98321 L 594.26994 557.78399 C 594.44662 558.40283 594.90915 559.16002 595.57853 559.61798 C 596.24792 560.07594 596.96791 560.19805 597.49259 560.19805 L 601.41837 560.19805 C 601.87634 560.19805 602.55546 560.08395 603.18986 559.69024 C 603.67855 560.00371 604.22491 560.19805 604.76408 560.19805 L 617.69767 560.19805 C 618.86147 560.19805 620.06087 559.31066 620.62931 558.21173 C 622.49268 559.71395 624.93638 560.45587 627.57658 560.45587 C 630.30881 560.45587 632.85036 559.6724 634.7465 558.02227 C 634.77987 557.99323 634.81129 557.962 634.84416 557.93243 C 635.34038 559.15622 636.64396 560.19805 637.9047 560.19805 L 650.8383 560.19805 C 651.44468 560.19805 652.0602 559.95508 652.5922 559.56915 C 653.12392 559.95456 653.73848 560.19756 654.34416 560.19805 L 654.34611 560.19805 L 658.07658 560.19805 C 659.6754 560.19805 661.34806 558.52538 661.34806 556.92657 A 2.8848633 2.8848633 0 0 0 661.34806 556.92462 A 2.8848633 2.8848633 0 0 0 661.34806 556.92266 A 2.8848633 2.8848633 0 0 0 661.34806 556.92071 A 2.8848633 2.8848633 0 0 0 661.34806 556.91876 A 2.8848633 2.8848633 0 0 0 661.34806 556.9168 A 2.8848633 2.8848633 0 0 0 661.34806 556.91485 A 2.8848633 2.8848633 0 0 0 661.34806 556.9129 L 661.34611 556.54962 L 662.16642 558.26641 A 2.8848633 2.8848633 0 0 0 662.18986 558.31329 C 662.6878 559.30943 664.0646 560.19805 665.21916 560.19805 L 669.04923 560.19805 C 670.64804 560.19805 672.31876 558.52538 672.31876 556.92657 L 672.31876 541.6004 C 672.32264 541.60042 672.32661 541.6004 672.33048 541.6004 L 674.33634 541.6004 L 674.33634 556.92657 C 674.33634 558.52538 676.00902 560.19805 677.60783 560.19805 L 681.3715 560.19805 C 682.97037 560.19805 684.64298 558.52547 684.64298 556.92657 L 684.64298 541.6004 L 686.28751 541.6004 C 686.52539 543.93693 687.67368 545.89628 689.04533 547.2293 C 687.59376 547.49372 686.20939 548.94263 686.20939 550.39532 L 686.20939 551.26446 C 686.20939 553.88628 687.31001 556.36765 689.20158 558.0086 C 691.09315 559.64955 693.63851 560.45587 696.39689 560.45587 C 699.12913 560.45587 701.67067 559.6724 703.56681 558.02227 C 705.46294 556.37215 706.55314 553.86172 706.55314 551.20001 C 706.55314 548.56175 705.28646 546.28603 703.74064 544.87774 C 703.72494 544.86344 703.70751 544.85679 703.69181 544.84259 C 705.09168 544.51107 706.39103 543.11634 706.39103 541.70977 L 706.39103 541.06524 C 706.39103 538.37968 705.27569 535.8624 703.37541 534.18048 C 701.47512 532.49855 698.90666 531.64923 696.13908 531.64923 C 693.7096 531.64923 691.4169 532.30063 689.61759 533.67071 C 689.01033 532.67677 687.89379 531.90704 686.809 531.90704 L 672.33048 531.90704 C 671.76675 531.90704 671.1954 532.11684 670.68986 532.45587 C 670.18442 532.11649 669.61329 531.90704 669.04923 531.90704 L 665.31681 531.90704 C 663.71794 531.90704 662.04533 533.57767 662.04533 535.17657 A 2.8848633 2.8848633 0 0 0 662.04533 535.18438 L 662.04728 535.60626 L 661.19181 533.83087 A 2.8848633 2.8848633 0 0 0 661.17228 533.7918 C 660.67434 532.79567 659.2956 531.90704 658.14103 531.90704 L 654.34611 531.90704 C 653.74019 531.90704 653.12427 532.14697 652.5922 532.53204 C 652.06022 532.14648 651.44465 531.90704 650.8383 531.90704 L 637.9047 531.90704 C 636.57221 531.90704 635.19203 533.06755 634.76798 534.37969 C 634.69726 534.31259 634.62816 534.24514 634.55509 534.18048 C 632.65481 532.49855 630.08635 531.64923 627.31876 531.64923 z M 656.84416 538.1004 L 658.33634 541.20001 C 658.10637 541.20701 657.88453 541.17829 657.64298 541.25079 C 657.2494 541.3688 657.1133 541.66273 656.84416 541.87579 L 656.84416 538.1004 z M 651.07462 541.55352 L 651.07462 550.54962 C 650.99546 550.54166 650.91732 550.53594 650.8383 550.53594 L 648.69376 550.53594 C 649.8733 550.01093 650.85978 548.75822 650.85978 547.53204 L 650.85978 544.41094 C 650.85978 543.28772 650.01826 542.15945 648.97306 541.56915 L 650.8383 541.56915 C 650.91733 541.56915 650.99545 541.56149 651.07462 541.55352 z M 615.83439 541.56915 L 617.46525 541.56915 C 617.69606 543.91936 618.8473 545.89039 620.22501 547.2293 C 618.77344 547.49372 617.38712 548.94263 617.38712 550.39532 L 617.38712 550.53594 L 615.55509 550.53594 C 616.73462 550.01093 617.71916 548.75822 617.71916 547.53204 L 617.71916 544.41094 C 617.71916 543.28772 616.8796 542.15945 615.83439 541.56915 z M 599.47111 549.93634 C 599.44711 549.94904 599.45294 549.97081 599.42814 549.98321 L 599.33244 550.02813 C 599.38374 550.00473 599.42034 549.96074 599.47111 549.93634 z M 666.55119 550.10821 L 666.55119 554.05938 L 665.00041 550.80938 C 665.23786 550.80438 665.46921 550.8336 665.71916 550.7586 C 666.12895 550.63573 666.27586 550.33308 666.55119 550.10821 z " />
      </g>
      <g
         aria-label="PRESENTS"
         id="text1023"
         style="font-weight:bold;font-size:32.1742px;line-height:1;font-family:'Barlow Semi Condensed';-inkscape-font-specification:'Barlow Semi Condensed,  Bold';text-align:end;letter-spacing:0px;word-spacing:0px;baseline-shift:baseline;text-anchor:end;display:inline;vector-effect:none;fill:#b0bec5;stroke-width:5.76915;stroke-linecap:round;stroke-linejoin:round;paint-order:stroke fill markers">
        <path
           id="path12121"
           d="M 627.31876 534.53399 C 623.1683 534.53399 620.30509 536.91323 620.30509 540.70977 C 620.30509 544.73155 623.55487 546.40647 626.41837 547.8543 C 629.05665 549.20561 630.3422 549.88118 630.3422 551.39337 C 630.3422 552.64816 629.50539 553.67657 627.76798 553.67657 C 625.93406 553.67657 624.74455 552.51792 624.74455 551.0379 L 624.74455 550.39532 C 624.74455 550.1701 624.58305 550.0086 624.35783 550.0086 L 620.65861 550.0086 C 620.43339 550.0086 620.27189 550.1701 620.27189 550.39532 L 620.27189 551.26446 C 620.27189 555.02884 623.16871 557.56915 627.57658 557.56915 C 631.95226 557.56915 634.84611 555.09308 634.84611 551.20001 C 634.84611 547.43563 631.88693 546.08288 628.76603 544.31329 C 625.87036 542.86546 624.7758 542.19071 624.7758 540.67852 C 624.7758 539.26286 625.70994 538.42657 627.25431 538.42657 C 629.12041 538.42657 630.2133 539.64969 630.2133 541.12969 L 630.2133 541.70782 C 630.2133 541.93304 630.3748 542.09454 630.60001 542.09454 L 634.29923 542.09454 C 634.52445 542.09454 634.68595 541.93304 634.68595 541.70782 L 634.68595 541.06524 C 634.68595 537.17217 631.69446 534.53399 627.31876 534.53399 z M 696.13908 534.53399 C 691.98861 534.53399 689.12541 536.91323 689.12541 540.70977 C 689.12541 544.73155 692.37519 546.40647 695.23869 547.8543 C 697.87697 549.20561 699.16251 549.88118 699.16251 551.39337 C 699.16251 552.64816 698.32766 553.67657 696.59025 553.67657 C 694.75632 553.67657 693.56486 552.51792 693.56486 551.0379 L 693.56486 550.39532 C 693.56486 550.1701 693.40336 550.0086 693.17814 550.0086 L 689.47892 550.0086 C 689.2537 550.0086 689.0922 550.1701 689.0922 550.39532 L 689.0922 551.26446 C 689.0922 555.02884 691.98902 557.56915 696.39689 557.56915 C 700.77258 557.56915 703.66837 555.09308 703.66837 551.20001 C 703.66837 547.43563 700.70724 546.08288 697.58634 544.31329 C 694.69067 542.86546 693.59806 542.19071 693.59806 540.67852 C 693.59806 539.26286 694.53027 538.42657 696.07462 538.42657 C 697.94073 538.42657 699.03556 539.64969 699.03556 541.12969 L 699.03556 541.70782 C 699.03556 541.93304 699.19511 542.09454 699.42033 542.09454 L 703.1215 542.09454 C 703.34672 542.09454 703.50626 541.93304 703.50626 541.70782 L 703.50626 541.06524 C 703.50626 537.17217 700.51476 534.53399 696.13908 534.53399 z M 570.11173 534.7586 C 569.88651 534.7586 569.72697 534.9201 569.72697 535.14532 L 569.72697 556.92657 C 569.72697 557.15179 569.88651 557.31329 570.11173 557.31329 L 573.87736 557.31329 C 574.10258 557.31329 574.26212 557.15179 574.26212 556.92657 L 574.26212 548.56134 C 574.26212 548.46484 574.32766 548.40118 574.42423 548.40118 L 577.89884 548.40118 C 581.82409 548.40118 584.46134 545.73052 584.46134 541.67657 C 584.46134 537.55827 581.82409 534.7586 577.89884 534.7586 L 570.11173 534.7586 z M 587.29337 534.7586 C 587.06815 534.7586 586.90666 534.9201 586.90666 535.14532 L 586.90666 556.92657 C 586.90666 557.15179 587.06815 557.31329 587.29337 557.31329 L 591.05705 557.31329 C 591.28227 557.31329 591.44376 557.15179 591.44376 556.92657 L 591.44376 548.14337 C 591.44376 548.04687 591.5093 547.98126 591.60587 547.98126 L 593.63126 547.98126 C 593.72776 547.98126 593.7612 548.04576 593.79337 548.11016 L 597.04142 556.99102 C 597.10572 557.21624 597.26737 557.31329 597.49259 557.31329 L 601.41837 557.31329 C 601.70794 557.31329 601.83716 557.15169 601.74064 556.86212 L 598.07267 547.62774 C 598.04047 547.53124 598.07282 547.4353 598.13712 547.40313 C 600.32497 546.40573 601.61173 544.31464 601.61173 541.54766 C 601.61173 537.5259 599.00583 534.7586 595.14494 534.7586 L 587.29337 534.7586 z M 604.76408 534.78985 C 604.53886 534.78985 604.37736 534.95135 604.37736 535.17657 L 604.37736 556.92657 C 604.37736 557.15179 604.53886 557.31329 604.76408 557.31329 L 617.69767 557.31329 C 617.92289 557.31329 618.08439 557.15179 618.08439 556.92657 L 618.08439 553.80548 C 618.08439 553.58026 617.92289 553.41876 617.69767 553.41876 L 609.07462 553.41876 C 608.97812 553.41876 608.91447 553.35517 608.91447 553.2586 L 608.91447 548.07891 C 608.91447 547.98241 608.97805 547.9168 609.07462 547.9168 L 614.44767 547.9168 C 614.67289 547.9168 614.83439 547.75726 614.83439 547.53204 L 614.83439 544.41094 C 614.83439 544.18573 614.67289 544.02423 614.44767 544.02423 L 609.07462 544.02423 C 608.97812 544.02423 608.91447 543.96064 608.91447 543.86407 L 608.91447 538.84454 C 608.91447 538.74804 608.97805 538.68438 609.07462 538.68438 L 617.69767 538.68438 C 617.92289 538.68438 618.08439 538.52288 618.08439 538.29766 L 618.08439 535.17657 C 618.08439 534.95135 617.92289 534.78985 617.69767 534.78985 L 604.76408 534.78985 z M 637.90275 534.78985 C 637.67753 534.78985 637.51798 534.95135 637.51798 535.17657 L 637.51798 556.92657 C 637.51798 557.15179 637.67753 557.31329 637.90275 557.31329 L 650.8383 557.31329 C 651.06352 557.31329 651.22306 557.15179 651.22306 556.92657 L 651.22306 553.80548 C 651.22306 553.58026 651.06352 553.41876 650.8383 553.41876 L 642.21525 553.41876 C 642.11875 553.41876 642.05509 553.35517 642.05509 553.2586 L 642.05509 548.07891 C 642.05509 547.98241 642.11868 547.9168 642.21525 547.9168 L 647.5883 547.9168 C 647.81351 547.9168 647.97501 547.75726 647.97501 547.53204 L 647.97501 544.41094 C 647.97501 544.18573 647.81351 544.02423 647.5883 544.02423 L 642.21525 544.02423 C 642.11875 544.02423 642.05509 543.96064 642.05509 543.86407 L 642.05509 538.84454 C 642.05509 538.74804 642.11868 538.68438 642.21525 538.68438 L 650.8383 538.68438 C 651.06352 538.68438 651.22306 538.52288 651.22306 538.29766 L 651.22306 535.17657 C 651.22306 534.95135 651.06352 534.78985 650.8383 534.78985 L 637.90275 534.78985 z M 654.34416 534.78985 C 654.11894 534.78985 653.95939 534.95135 653.95939 535.17657 L 653.95939 556.92657 C 653.95939 557.15179 654.11894 557.31329 654.34416 557.31329 L 658.07658 557.31329 C 658.3018 557.31329 658.4633 557.15179 658.4633 556.92657 L 658.39884 544.15313 C 658.39884 543.99226 658.52785 543.95994 658.5922 544.08868 L 664.76994 557.02227 C 664.86644 557.21532 665.02612 557.31329 665.21916 557.31329 L 669.04923 557.31329 C 669.27445 557.31329 669.434 557.15179 669.434 556.92657 L 669.434 535.17657 C 669.434 534.95135 669.27445 534.78985 669.04923 534.78985 L 665.31681 534.78985 C 665.0916 534.78985 664.93009 534.95135 664.93009 535.17657 L 664.96134 547.8543 C 664.96134 548.01517 664.83429 548.04554 664.76994 547.9168 L 658.5922 535.08087 C 658.4957 534.88782 658.33407 534.78985 658.14103 534.78985 L 654.34416 534.78985 z M 672.33048 534.78985 C 672.10526 534.78985 671.94376 534.95135 671.94376 535.17657 L 671.94376 538.32891 C 671.94376 538.55413 672.10526 538.71563 672.33048 538.71563 L 677.059 538.71563 C 677.1555 538.71563 677.22111 538.77921 677.22111 538.87579 L 677.22111 556.92657 C 677.22111 557.15179 677.38065 557.31329 677.60587 557.31329 L 681.3715 557.31329 C 681.59671 557.31329 681.75626 557.15179 681.75626 556.92657 L 681.75626 538.87579 C 681.75626 538.77929 681.8218 538.71563 681.91837 538.71563 L 686.809 538.71563 C 687.03422 538.71563 687.19376 538.55413 687.19376 538.32891 L 687.19376 535.17657 C 687.19376 534.95135 687.03422 534.78985 686.809 534.78985 L 672.33048 534.78985 z M 574.42423 538.68438 L 577.15861 538.68438 C 578.79949 538.68438 579.92619 539.84183 579.92619 541.77227 C 579.92619 543.63838 578.79949 544.79766 577.15861 544.79766 L 574.42423 544.79766 C 574.32773 544.79766 574.26212 544.73212 574.26212 544.63555 L 574.26212 538.84454 C 574.26212 538.74804 574.32766 538.68438 574.42423 538.68438 z M 591.60587 538.68438 L 594.4047 538.68438 C 595.98124 538.68438 597.07462 539.81037 597.07462 541.61212 C 597.07462 543.34953 595.98124 544.4754 594.4047 544.4754 L 591.60587 544.4754 C 591.50937 544.4754 591.44377 544.40987 591.44376 544.31329 L 591.44376 538.84454 C 591.44376 538.74804 591.5093 538.68438 591.60587 538.68438 z " />
      </g>
      <path
         id="path8933"
         style="font-style:normal;font-variant:normal;font-weight:bold;font-stretch:normal;font-size:72px;line-height:1.2;font-family:'VD-LOGO JR Std U';-inkscape-font-specification:'VD-LOGO JR Std U Bold';text-align:center;text-decoration:none;text-decoration-line:none;text-decoration-color:#000000;letter-spacing:-6px;text-anchor:middle;fill:#b0bec5;fill-opacity:1;stroke-width:11.4908;stroke-linejoin:round;paint-order:stroke fill markers;stop-color:#000000"
         d="M 309.37931 601.42071 L 306.17033 638.10235 C 305.90106 642.41139 304.88298 646.04614 303.11564 649.0086 C 302.89575 649.37146 302.59719 649.66755 302.3383 649.99688 L 320.70548 649.25274 C 321.94868 645.40547 322.82707 641.11668 323.29337 636.32501 L 323.47501 636.08087 L 326.50822 601.42071 L 309.37931 601.42071 z M 461.05705 601.42071 L 457.84806 638.10235 C 457.72091 640.13733 457.41481 642.00832 456.95353 643.74298 L 473.94572 643.05743 C 474.36865 640.91151 474.74159 638.70365 474.97306 636.32501 L 475.1547 636.08087 L 478.18595 601.42071 L 461.05705 601.42071 z M 342.81486 601.58282 L 339.7758 636.32501 C 339.43984 640.79237 339.53505 644.82699 340.01798 648.47344 L 357.41837 647.76837 C 356.57624 645.07731 356.32248 641.92788 356.73478 638.26251 L 359.94376 601.58282 L 342.81486 601.58282 z M 494.49259 601.58282 L 491.45353 636.32501 C 491.29331 638.45552 491.30641 640.4105 491.33244 642.3543 L 508.22501 641.67071 C 508.22601 640.58272 508.27854 639.45334 508.41251 638.26251 L 511.6215 601.58282 L 494.49259 601.58282 z M 448.16447 603.19805 C 441.84099 604.05986 436.59757 606.4293 432.434 610.30743 C 428.32433 614.18557 425.76598 619.41193 424.76017 625.98321 L 424.15666 630.10235 C 423.61962 635.68144 421.27912 640.74566 417.31486 645.34649 L 437.79337 644.51837 C 439.50348 640.34559 440.79143 635.70807 441.64689 630.58868 L 441.81291 629.61798 C 442.07614 627.84051 442.61907 626.25084 443.44181 624.8504 C 444.26456 623.44996 445.33762 622.58958 446.65861 622.26641 L 446.51603 622.02423 L 448.16447 603.19805 z M 599.8422 603.19805 C 593.51872 604.05986 588.27529 606.4293 584.11173 610.30743 C 580.00206 614.18557 577.44371 619.41193 576.43791 625.98321 L 575.83439 630.10235 C 575.53262 633.23726 574.67527 636.21381 573.29142 639.03985 L 591.56681 638.30157 C 592.26178 635.85065 592.87049 633.30637 593.32462 630.58868 L 593.49064 629.61798 C 593.75387 627.84051 594.29681 626.25084 595.11955 624.8504 C 595.9423 623.44996 597.01535 622.58958 598.33634 622.26641 L 598.19572 622.02423 L 599.8422 603.19805 z M 610.97111 604.9754 L 610.45939 609.90509 C 610.09719 612.81368 609.0168 615.61428 607.21916 618.30743 C 605.47536 621.00058 603.40875 622.45526 601.01994 622.67071 L 599.68009 637.97344 L 610.51212 637.53594 C 612.03341 636.53886 613.48959 635.4458 614.80314 634.14337 C 618.93167 630.04979 621.82753 626.17128 623.49455 622.5086 L 651.5297 622.5086 L 650.81095 630.74884 C 650.73555 631.61064 650.61161 632.41858 650.43791 633.17266 C 641.34312 631.2336 631.57938 630.15764 621.14884 629.94219 L 620.52189 637.12969 L 667.63712 635.2254 C 667.79978 634.08379 667.98843 632.94124 668.0883 631.79962 L 670.43595 604.9754 L 610.97111 604.9754 z M 374.72111 605.05743 L 373.16642 622.83087 L 408.71525 622.83087 L 410.27189 605.05743 L 374.72111 605.05743 z M 526.4008 605.05743 L 524.84416 622.83087 L 560.39494 622.83087 L 561.94962 605.05743 L 526.4008 605.05743 z M 679.53947 628.97149 L 679.03166 634.76446 L 743.89689 632.14337 L 744.17423 628.97149 L 679.53947 628.97149 z M 747.66056 643.70782 L 682.74845 644.62969 L 681.31486 657.2254 L 745.92814 658.9168 L 745.93791 658.83673 L 747.66056 643.70782 z M 671.34611 644.7918 L 624.19572 645.46368 L 623.13908 654.73321 C 630.9881 655.04651 638.7505 656.11104 646.42814 657.92852 C 641.58933 662.00456 633.92727 663.85193 623.43986 663.46954 L 605.02384 662.98712 L 603.04142 680.39337 L 621.45744 680.87384 C 633.10006 681.07095 642.37842 679.50954 649.29142 676.18829 C 656.19831 672.92074 661.33512 668.58418 664.70548 663.17657 C 668.86614 664.57867 672.07908 665.76572 674.34416 666.74102 L 674.46134 666.42071 L 676.47306 648.77423 C 675.02661 648.19754 673.20793 647.55623 671.01994 646.85235 C 671.15915 646.16604 671.2298 645.47871 671.34611 644.7918 z M 614.18009 645.60821 L 603.34025 645.76055 L 602.89494 649.67657 C 607.12699 649.05263 610.86511 647.65897 614.18009 645.60821 z M 595.22111 645.87579 L 576.934 646.13555 C 575.5368 648.80924 573.65976 651.33419 571.2758 653.69805 C 566.35129 658.52616 557.59849 660.93667 545.01603 660.93048 L 524.82462 660.40118 L 522.8422 677.80743 L 544.56876 678.37579 C 571.37337 679.12631 588.23397 668.26604 595.22111 645.87579 z M 511.82072 647.06329 L 494.91642 647.30352 C 494.68546 665.3609 502.6152 675.65466 518.87345 678.02618 L 520.89494 660.29962 C 516.78076 659.43755 514.13456 657.53496 512.95744 654.59454 C 512.11004 652.42788 511.7421 649.91111 511.82072 647.06329 z M 477.51603 647.55157 L 460.51017 647.79376 C 459.94414 649.71805 459.18856 651.46233 458.21525 653.00079 C 456.37709 655.86226 453.31526 657.61258 449.0297 658.25469 L 446.99259 676.14532 C 463.43555 674.65451 473.58087 665.08593 477.51603 647.55157 z M 441.3383 648.06524 L 420.84416 648.35821 C 420.43336 648.81047 420.09406 649.28588 419.64884 649.72735 C 414.72434 654.55547 405.97348 656.96597 393.39103 656.95977 L 373.19767 656.43048 L 371.21525 673.83673 L 392.94181 674.40509 C 417.17356 675.08356 433.30223 666.29836 441.3383 648.06524 z M 360.9047 649.20977 L 343.49259 649.45977 C 345.00596 663.75166 352.90986 671.96398 367.24845 674.05548 L 369.26798 656.32891 C 365.15381 655.46684 362.5076 653.56425 361.33048 650.62384 C 361.15556 650.17661 361.04015 649.68601 360.9047 649.20977 z M 324.16642 649.73516 L 305.78556 649.99688 C 303.90951 652.25902 301.15366 653.72198 297.40275 654.28399 L 295.36564 672.17462 C 309.77838 670.86789 319.36347 663.36825 324.16642 649.73516 z " />
    </g>
  </g>
</svg>
