<?xml version="1.0" encoding="UTF-8" standalone="no"?>
<!-- Created with Inkscape (http://www.inkscape.org/) -->

<svg
   xmlns:dc="http://purl.org/dc/elements/1.1/"
   xmlns:cc="http://creativecommons.org/ns#"
   xmlns:rdf="http://www.w3.org/1999/02/22-rdf-syntax-ns#"
   xmlns:svg="http://www.w3.org/2000/svg"
   xmlns="http://www.w3.org/2000/svg"
   xmlns:sodipodi="http://sodipodi.sourceforge.net/DTD/sodipodi-0.dtd"
   xmlns:inkscape="http://www.inkscape.org/namespaces/inkscape"
   width="256"
   height="256"
   viewBox="0 0 256 256"
   version="1.1"
   id="svg8"
   inkscape:version="0.92.4 (5da689c313, 2019-01-14)"
   sodipodi:docname="haitouch_logo.svg"
   inkscape:export-filename="D:\Documents\PuzzleGame\logo\hand1.png"
   inkscape:export-xdpi="405"
   inkscape:export-ydpi="405">
  <defs
     id="defs2" />
  <sodipodi:namedview
     id="base"
     pagecolor="#ffffff"
     bordercolor="#666666"
     borderopacity="1.0"
     inkscape:pageopacity="0.0"
     inkscape:pageshadow="2"
     inkscape:zoom="1.1508237"
     inkscape:cx="239.72976"
     inkscape:cy="188.3053"
     inkscape:document-units="px"
     inkscape:current-layer="layer1"
     showgrid="false"
     units="px"
     inkscape:pagecheckerboard="true"
     borderlayer="true"
     gridtolerance="10"
     inkscape:snap-smooth-nodes="true"
     inkscape:snap-text-baseline="true"
     inkscape:snap-page="true"
     showguides="true"
     inkscape:guide-bbox="true">
    <inkscape:grid
       type="xygrid"
       id="grid4131"
       empspacing="4" />
  </sodipodi:namedview>
  <metadata
     id="metadata5">
    <rdf:RDF>
      <cc:Work
         rdf:about="">
        <dc:format>image/svg+xml</dc:format>
        <dc:type
           rdf:resource="http://purl.org/dc/dcmitype/StillImage" />
        <dc:title></dc:title>
      </cc:Work>
    </rdf:RDF>
  </metadata>
  <g
     inkscape:label="レイヤー 1"
     inkscape:groupmode="layer"
     id="layer1"
     transform="translate(0,-570.49999)">
    <path
       style="font-style:normal;font-variant:normal;font-weight:900;font-stretch:normal;font-size:51.20000076px;line-height:1.39999998;font-family:Mikado;-inkscape-font-specification:'Mikado Heavy';font-variant-ligatures:normal;font-variant-position:normal;font-variant-caps:normal;font-variant-numeric:normal;font-variant-alternates:normal;font-feature-settings:normal;text-indent:0;text-align:center;text-decoration:none;text-decoration-line:none;text-decoration-style:solid;text-decoration-color:#000000;letter-spacing:0px;word-spacing:0px;text-transform:none;writing-mode:lr-tb;direction:ltr;text-orientation:sideways;dominant-baseline:auto;baseline-shift:baseline;text-anchor:middle;white-space:normal;shape-padding:0;fill:#fffcbc;fill-opacity:1;fill-rule:nonzero;stroke:none;stroke-width:7.67999983;stroke-linecap:butt;stroke-linejoin:miter;stroke-miterlimit:4;stroke-dasharray:none;stroke-dashoffset:0;stroke-opacity:1;paint-order:stroke fill markers"
       d="M 83.474609 156.05469 C 79.225009 156.05469 78.304688 158.35922 78.304688 161.48242 C 78.304688 164.70802 80.402609 166.44727 83.474609 166.44727 C 86.649009 166.44727 88.851563 164.39984 88.851562 161.83984 C 88.851562 158.20464 86.649009 156.05469 83.474609 156.05469 z M 28.664062 156.1875 C 25.852562 156.147 22.128297 156.57948 21.904297 156.77148 C 21.545897 157.07868 21.801059 194.71038 22.005859 195.01758 C 22.210659 195.32478 31.580775 195.42746 31.734375 195.22266 C 31.939175 195.06906 31.990234 182.5254 31.990234 181.0918 C 31.990234 179.5558 33.013663 177.76367 35.164062 177.76367 C 37.314462 177.76367 38.03125 180.01632 38.03125 181.60352 C 38.03125 183.24192 37.826869 195.27455 37.980469 195.37695 C 38.082869 195.47935 47.503347 195.37598 47.810547 195.01758 C 48.117747 194.65918 48.580078 183.95858 48.580078 180.42578 C 48.580078 173.76978 45.405725 169.00781 37.828125 169.00781 C 34.295325 169.00781 32.656116 170.28752 31.478516 171.66992 C 31.683316 170.08272 31.989956 158.30623 31.785156 156.92383 C 31.708356 156.40543 30.350963 156.2118 28.664062 156.1875 z M 102.13672 158.71484 C 98.692719 158.66924 92.893594 159.06198 91.933594 159.48438 C 91.933594 169.31478 96.234653 179.76004 96.439453 179.96484 C 96.644253 180.16964 100.12597 180.52804 100.48438 179.96484 C 100.84278 179.40164 104.3757 171.15867 104.5293 158.92188 C 104.1709 158.79388 103.28472 158.73004 102.13672 158.71484 z M 62.279297 168.90625 C 55.060097 168.90625 51.474609 174.0265 51.474609 174.8457 C 51.474609 175.5625 55.57045 179.24805 56.03125 179.24805 C 56.49205 179.24805 58.131406 177.30273 60.691406 177.30273 C 65.145806 177.30273 64.377372 180.68164 64.326172 181.39844 C 63.455772 180.93764 62.380031 180.42578 60.332031 180.42578 C 55.314431 180.42578 51.269531 183.24244 51.269531 187.74805 C 51.269531 192.45845 53.523694 195.5293 58.746094 195.5293 C 63.046894 195.5293 65.146484 192.66211 65.146484 192.66211 L 65.708984 194.86328 C 65.708984 194.86328 73.594447 195.17048 73.748047 194.86328 C 73.901647 194.55608 74.15625 185.90321 74.15625 180.06641 C 74.15625 172.54001 68.474497 168.90625 62.279297 168.90625 z M 81.580078 169.11523 C 79.824778 169.12393 78.386353 169.20677 78.251953 169.41797 C 77.893553 169.98117 78.30385 194.91476 78.40625 195.06836 C 78.50865 195.22196 87.623325 195.37598 87.828125 195.01758 C 88.032925 194.65918 88.646206 169.62277 88.441406 169.41797 C 88.313406 169.28997 84.505578 169.10073 81.580078 169.11523 z M 98.640625 183.39453 C 94.954225 183.39453 92.394531 185.75109 92.394531 188.7207 C 92.394531 192.9703 94.954225 195.42773 98.640625 195.42773 C 103.60702 195.42773 104.63086 192.76411 104.63086 189.12891 C 104.63086 185.3913 102.22462 183.39453 98.640625 183.39453 z M 61.664062 185.49414 C 62.841662 185.49414 63.814453 186.41614 63.814453 187.59375 C 63.814453 188.77135 63.097663 189.69336 61.664062 189.69336 C 60.486463 189.69336 59.564453 188.77135 59.564453 187.59375 C 59.564453 186.41614 60.384063 185.49414 61.664062 185.49414 z "
       transform="translate(0,570.49999)"
       id="path830" />
    <path
       style="font-style:normal;font-variant:normal;font-weight:normal;font-stretch:normal;font-size:51.20000076px;line-height:1.39999998;font-family:Mikado;-inkscape-font-specification:Mikado;font-variant-ligatures:normal;font-variant-position:normal;font-variant-caps:normal;font-variant-numeric:normal;font-variant-alternates:normal;font-feature-settings:normal;text-indent:0;text-align:center;text-decoration:none;text-decoration-line:none;text-decoration-style:solid;text-decoration-color:#000000;letter-spacing:0px;word-spacing:0px;text-transform:none;writing-mode:lr-tb;direction:ltr;text-orientation:sideways;dominant-baseline:auto;baseline-shift:baseline;text-anchor:middle;white-space:normal;shape-padding:0;fill:#ffffff;fill-opacity:1;fill-rule:nonzero;stroke:none;stroke-width:7.67999983;stroke-linecap:butt;stroke-linejoin:miter;stroke-miterlimit:4;stroke-dasharray:none;stroke-dashoffset:0;stroke-opacity:1;paint-order:stroke fill markers"
       d="M 213.73828 156.49609 C 212.66948 156.50249 211.59263 156.64307 211.49023 156.82227 C 211.33663 164.60467 211.28669 194.91434 211.33789 195.11914 C 211.44029 195.42634 215.58705 195.58022 215.68945 195.32422 C 215.84305 195.17062 215.89453 182.93444 215.89453 180.68164 C 215.89453 177.71204 218.4552 174.69141 222.5 174.69141 C 226.2888 174.69141 228.33594 177.6607 228.33594 180.9375 C 228.33594 183.1903 228.33677 193.53236 228.23438 195.06836 C 228.43918 195.22196 232.32882 195.47922 232.48242 194.91602 C 232.73842 192.66322 232.99609 183.9064 232.99609 180.7832 C 232.99609 174.2296 229.00198 170.5957 223.26758 170.5957 C 219.58118 170.5957 216.76577 172.64397 215.79297 174.38477 C 215.89537 173.77037 215.99651 158.05176 215.94531 156.97656 C 215.86851 156.61816 214.80708 156.48969 213.73828 156.49609 z M 116.62305 163.88086 C 115.50705 163.84966 113.40419 164.04241 113.05859 164.34961 C 112.59779 164.81041 112.75126 170.44252 112.59766 170.54492 C 112.44406 170.64732 108.09152 170.44099 107.88672 170.49219 C 107.37472 170.64579 107.63114 173.92257 107.83594 174.07617 C 108.09194 174.22977 112.54687 174.28083 112.54688 174.33203 C 112.54688 174.38323 111.98326 185.49454 111.88086 188.31055 C 111.82966 192.66255 113.92813 195.73396 118.89453 195.78516 C 123.29773 195.88756 125.85937 193.5332 125.85938 193.5332 C 125.80818 192.9188 124.98856 190.46108 124.47656 190.20508 C 124.01576 190.20508 122.32604 191.79143 119.71484 191.74023 C 117.20604 191.68903 116.38672 190.05051 116.38672 187.69531 C 116.48912 183.9577 116.89844 174.74149 116.89844 174.58789 C 116.89844 174.38309 124.9873 174.84431 125.3457 174.53711 C 125.3457 174.53711 125.75572 171.51702 125.29492 171.10742 C 124.78292 170.69782 117.20592 170.69685 117.10352 170.74805 C 117.00112 170.74805 117.56459 164.24623 117.30859 163.99023 C 117.25739 163.92623 116.99505 163.89126 116.62305 163.88086 z M 160.25781 170.33203 C 159.53511 170.34943 158.95213 170.44767 158.89453 170.69727 C 158.68973 173.05247 158.125 182.11466 158.125 186.00586 C 158.125 192.14987 160.89018 195.99023 167.39258 195.99023 C 170.61818 195.99023 173.84416 194.19755 175.22656 192.25195 C 175.17536 192.55915 175.17425 194.35295 175.12305 195.37695 C 175.48145 195.83775 178.96428 196.04172 179.27148 195.47852 C 179.57868 184.98251 179.9375 171.15792 179.9375 170.95312 C 179.7327 170.69713 175.79032 170.59556 175.63672 170.85156 C 175.48312 171.05636 175.17425 183.75376 175.12305 185.44336 C 175.02065 189.07857 172.46123 191.94531 168.36523 191.94531 C 164.57643 191.89411 162.63086 189.64079 162.63086 185.80078 C 162.63086 183.03598 163.24609 172.0805 163.24609 170.5957 C 163.05409 170.4997 161.46231 170.30303 160.25781 170.33203 z M 197.53125 170.49219 C 189.74885 170.49219 185.70312 176.84191 185.70312 183.03711 C 185.70312 189.23232 188.98155 195.63281 197.68555 195.63281 C 201.37195 195.63281 204.33984 193.99401 205.77344 192.09961 C 205.10784 190.66601 204.03376 189.0784 203.72656 189.2832 C 203.00976 189.7952 200.80791 191.53516 197.78711 191.53516 C 195.17591 191.53516 190.26172 190.1542 190.26172 183.24219 C 190.26172 177.71259 193.48631 174.74219 197.78711 174.74219 C 201.31991 174.74219 203.77748 177.04688 204.23828 177.04688 C 204.85268 176.99568 205.97977 173.97531 205.82617 173.41211 C 205.67257 172.90011 202.65125 170.49219 197.53125 170.49219 z M 140.67969 170.54492 C 133.10209 170.54492 128.9043 176.63683 128.9043 182.83203 C 128.9043 190.87044 133.9224 195.58008 140.7832 195.58008 C 148.4632 195.42648 152.55859 190.10146 152.55859 183.18945 C 152.55859 174.84385 147.48929 170.54492 140.67969 170.54492 z M 140.7832 174.99805 C 144.6744 175.04925 148.10352 176.84149 148.10352 183.08789 C 148.10352 188.4127 145.59531 191.48479 140.62891 191.43359 C 136.73771 191.43359 133.35938 188.77152 133.35938 183.03711 C 133.35938 178.48031 135.7144 174.94685 140.7832 174.99805 z "
       transform="translate(0,570.49999)"
       id="path838" />
    <path
       style="font-style:normal;font-variant:normal;font-weight:normal;font-stretch:normal;font-size:35.84000015px;line-height:1.39999998;font-family:'Tobi Greek Cyrillic';-inkscape-font-specification:'Tobi Greek Cyrillic';font-variant-ligatures:normal;font-variant-position:normal;font-variant-caps:normal;font-variant-numeric:normal;font-variant-alternates:normal;font-feature-settings:normal;text-indent:0;text-align:center;text-decoration:none;text-decoration-line:none;text-decoration-style:solid;text-decoration-color:#000000;letter-spacing:0px;word-spacing:0px;text-transform:none;writing-mode:lr-tb;direction:ltr;text-orientation:sideways;dominant-baseline:auto;baseline-shift:baseline;text-anchor:middle;white-space:normal;shape-padding:0;fill:#ffffff;fill-opacity:0.77777782;fill-rule:nonzero;stroke:none;stroke-width:8.77714252;stroke-linecap:butt;stroke-linejoin:miter;stroke-miterlimit:4;stroke-dasharray:none;stroke-dashoffset:0;stroke-opacity:1;paint-order:stroke fill markers"
       d="M 71.445312 206.26562 C 68.900672 206.22983 66.821199 206.80419 65.136719 208.05859 C 63.452239 209.27715 62.626953 211.14032 62.626953 213.61328 C 62.626953 216.4088 64.061804 218.59492 66.964844 220.17188 C 67.502444 220.45859 68.362202 220.85371 69.544922 221.35547 C 70.763482 221.82139 71.730466 222.2874 72.447266 222.68164 C 73.271586 223.14756 73.630958 223.71943 73.523438 224.40039 C 73.487598 225.22471 72.770807 225.61924 71.373047 225.51172 C 70.262007 225.44002 69.257328 225.04619 68.361328 224.36523 C 67.465328 223.68427 66.784865 223.03897 66.390625 222.42969 L 61.875 225.87109 C 62.62764 227.62725 63.918254 228.98798 65.746094 230.02734 C 67.573934 231.03086 69.580752 231.53252 71.695312 231.56836 C 74.060753 231.56836 75.960931 231.0667 77.394531 230.02734 C 79.329891 228.62958 80.296875 226.55138 80.296875 223.75586 C 80.296875 221.74882 79.507917 220.09952 77.966797 218.77344 C 77.321677 218.2 76.1753 217.59112 74.5625 216.91016 C 74.09658 216.7668 72.052934 215.97891 71.121094 215.54883 C 69.938374 214.97539 69.402246 214.36582 69.509766 213.7207 C 69.617286 212.75302 70.333393 212.28643 71.695312 212.32227 C 72.555472 212.35807 73.452242 212.71689 74.419922 213.32617 C 75.387602 213.93545 76.067283 214.65361 76.533203 215.40625 L 80.691406 211.17578 C 78.541006 208.02186 75.459393 206.37315 71.445312 206.26562 z M 128.97852 206.26562 C 126.93564 206.22983 124.82101 206.55283 122.63477 207.16211 L 122.74219 230.85156 C 126.79211 231.17412 130.12645 230.85176 132.81445 229.91992 C 137.86789 228.16376 141.12959 223.75657 141.09375 217.26953 C 140.91455 209.99401 136.86332 206.30147 128.97852 206.26562 z M 163.91797 206.26562 C 160.33397 206.22983 157.57403 207.37743 155.63867 209.70703 C 153.70331 212.03663 152.73437 215.01161 152.73438 218.70312 C 152.73438 222.538 153.6663 225.6202 155.49414 228.02148 C 157.35782 230.38692 160.15477 231.5333 163.91797 231.42578 C 167.35861 231.31826 169.97362 230.13556 171.76562 227.8418 C 173.55763 225.54804 174.48955 222.64582 174.52539 219.09766 C 174.63291 212.18054 171.48021 206.37315 163.91797 206.26562 z M 185.61523 206.26562 C 183.07059 206.22983 180.99112 206.80419 179.30664 208.05859 C 177.62216 209.27715 176.79687 211.14032 176.79688 213.61328 C 176.79688 216.4088 178.23173 218.59492 181.13477 220.17188 C 181.67237 220.45859 182.53212 220.85371 183.71484 221.35547 C 184.9334 221.82139 185.90039 222.2874 186.61719 222.68164 C 187.44151 223.14756 187.80088 223.71943 187.69336 224.40039 C 187.65756 225.22471 186.94073 225.61924 185.54297 225.51172 C 184.43193 225.44002 183.4292 225.04619 182.5332 224.36523 C 181.6372 223.68427 180.95479 223.03897 180.56055 222.42969 L 176.04492 225.87109 C 176.79756 227.62725 178.08818 228.98798 179.91602 230.02734 C 181.74386 231.03086 183.75067 231.53252 185.86523 231.56836 C 188.23067 231.56836 190.13085 231.0667 191.56445 230.02734 C 193.49981 228.62958 194.4668 226.55138 194.4668 223.75586 C 194.4668 221.74882 193.67784 220.09952 192.13672 218.77344 C 191.4916 218.2 190.34522 217.59112 188.73242 216.91016 C 188.2665 216.7668 186.22286 215.97891 185.29102 215.54883 C 184.1083 214.97539 183.57217 214.36582 183.67969 213.7207 C 183.78721 212.75302 184.50331 212.28643 185.86523 212.32227 C 186.72539 212.35807 187.62216 212.71689 188.58984 213.32617 C 189.55752 213.93545 190.2372 214.65361 190.70312 215.40625 L 194.86133 211.17578 C 192.71093 208.02186 189.62931 206.37315 185.61523 206.26562 z M 99.443359 206.58789 L 81.773438 206.91211 L 81.738281 214.00781 L 87.115234 213.68555 L 87.185547 230.96094 L 93.421875 230.96094 L 93.78125 213.32617 L 99.443359 213.00391 L 99.443359 206.58789 z M 109.53906 206.58789 L 102.11914 206.80469 C 101.29482 212.07317 100.86455 216.19383 100.90039 219.24023 C 100.93619 227.41175 104.12575 231.49805 110.43359 231.49805 C 116.92063 231.49805 120.25439 226.91068 120.43359 217.77148 C 120.46939 215.51356 120.39799 213.32686 120.21875 211.14062 C 120.03955 208.95439 119.86084 207.44932 119.68164 206.625 L 112.51367 206.80469 C 112.97959 210.99797 113.26494 214.54481 113.30078 217.51953 C 113.33658 219.66993 113.26596 221.14062 112.94336 222.57422 C 112.65664 224.00782 111.90469 224.75977 110.75781 224.75977 C 109.00165 224.75977 108.14053 222.75168 108.24805 218.77344 C 108.28385 216.65888 108.42744 214.29464 108.75 211.75 C 109.07256 209.20536 109.32402 207.48389 109.53906 206.58789 z M 150.3457 206.625 L 143.5 207.23438 L 143.46484 230.96094 L 150.31055 230.96094 L 150.3457 206.625 z M 163.77344 212.7168 C 167.10656 212.82432 167.75195 216.22997 167.75195 218.91797 C 167.82365 221.71349 166.82062 224.83193 163.63086 224.93945 C 161.65966 224.93945 160.36953 223.21837 159.93945 221.49805 C 159.72441 220.60205 159.6165 219.70596 159.65234 218.73828 C 159.68814 216.6954 159.97539 215.01094 161.26562 213.7207 C 161.91074 213.03974 162.73408 212.7168 163.77344 212.7168 z M 129.97656 212.81055 C 131.01144 212.80887 131.94406 213.16635 132.77734 213.86523 C 133.88838 214.76123 134.46289 216.12275 134.46289 217.87891 C 134.42709 219.59923 133.88965 221.10429 132.81445 222.39453 C 131.73925 223.64893 130.44796 224.36445 128.97852 224.50781 L 128.90625 212.93164 C 129.27361 212.851 129.6316 212.81111 129.97656 212.81055 z "
       transform="translate(0,570.49999)"
       id="path849" />
    <g
       style="display:inline;opacity:1"
       id="g948"
       transform="matrix(1.2363851,-0.33128838,0.33128838,1.2363851,-333.86329,-54.668144)">
      <path
         id="path941"
         d="m 183.54224,567.64314 c 4.60419,0.0643 9.09633,3.51782 8.18704,10.32156 -0.0476,0.35645 -0.0906,0.72248 -0.13743,1.08098 2.60119,-10.82217 18.64197,-6.54651 16.03851,3.13185 -4.05753,15.08386 -6.50924,28.52664 -6.86197,43.18887 l -4.83832,30.08542 c -6.3654,-0.15356 -12.94725,-0.9747 -24.03138,-0.68915 -16.35108,0.42124 -16.75861,-17.84287 -19.14266,-34.80773 -1.37882,-9.81163 -3.84504,-19.47526 -6.63057,-27.14046 -3.71884,-10.2335 8.42219,-15.00677 12.92834,-7.48139 -0.009,-0.0357 -0.017,-0.0707 -0.0267,-0.10617 -3.77836,-13.77398 12.90096,-16.84962 15.73694,-6.47586 -0.0249,-0.35005 -0.0578,-0.74383 -0.0812,-1.08822 -0.4599,-6.7594 4.25528,-10.084 8.85947,-10.01972 z"
         style="opacity:1;vector-effect:none;fill:#6594e5;fill-opacity:1;fill-rule:nonzero;stroke:none;stroke-width:6;stroke-linecap:butt;stroke-linejoin:miter;stroke-miterlimit:4;stroke-dasharray:none;stroke-dashoffset:0;stroke-opacity:1;paint-order:stroke fill markers"
         inkscape:connector-curvature="0" />
      <path
         sodipodi:nodetypes="cssccssccssccssssc"
         inkscape:connector-curvature="0"
         id="path928"
         d="m 198.76897,625.31817 c 0.35273,-14.66224 2.26894,-28.15155 5.76447,-43.21487 1.48595,-6.4034 -9.67138,-9.04094 -10.36978,-2.00716 -1.25073,12.5965 -1.74111,22.67714 -3.10294,33.03258 l -3.98199,-0.79491 c 0.0655,-10.68384 1.01559,-23.94031 2.23379,-35.30536 0.93118,-8.6873 -12.53269,-9.51628 -12.06365,-0.0714 0.5124,10.31784 1.52715,23.98091 0.42232,34.45098 l -3.45759,0.22717 c -1.19649,-9.58809 -1.94517,-19.51147 -1.70714,-29.37811 0.22732,-9.42265 -14.65941,-7.77402 -11.47929,3.01743 2.85036,9.67244 3.26836,19.2634 4.80682,28.34373 l -3.24399,0.77214 c -1.52274,-6.8351 -3.33132,-16.21381 -3.95901,-23.52484 -0.85725,-9.98466 -12.69603,-6.91977 -9.84853,2.01228 2.47715,7.77035 4.59395,17.31439 5.97277,27.12604 2.38406,16.96484 4.56628,33.08477 17.19072,32.75953 11.08412,-0.28555 17.66682,0.53602 24.03223,0.68958"
         style="opacity:1;vector-effect:none;fill:#c8f3ff;fill-opacity:1;fill-rule:nonzero;stroke:none;stroke-width:6;stroke-linecap:butt;stroke-linejoin:miter;stroke-miterlimit:4;stroke-dasharray:none;stroke-dashoffset:0;stroke-opacity:1;paint-order:stroke fill markers" />
      <path
         style="opacity:1;vector-effect:none;fill:#6594e5;fill-opacity:1;fill-rule:nonzero;stroke:none;stroke-width:6;stroke-linecap:butt;stroke-linejoin:miter;stroke-miterlimit:4;stroke-dasharray:none;stroke-dashoffset:0;stroke-opacity:1;paint-order:stroke fill markers"
         d="m 220.65839,604.52308 c -6.61907,-7.84654 -19.84448,-5.85954 -20.29072,17.19026 -11.15581,-6.41861 -26.67021,5.78905 -22.59542,17.13465 3.93142,10.94643 14.64402,16.51963 18.15768,16.6044 16.20637,0.39098 18.02535,-32.53276 24.72846,-50.92931 z"
         id="path930"
         inkscape:connector-curvature="0"
         sodipodi:nodetypes="ccssc" />
      <path
         sodipodi:nodetypes="ccssc"
         inkscape:connector-curvature="0"
         id="path926"
         d="m 217.4545,605.32427 c -7.60945,-7.7606 -14.17872,0.53646 -14.54288,20.18405 -11.15582,-6.4186 -24.87991,2.58434 -25.13937,13.33967 -0.25947,10.75533 7.34084,14.34287 18.20591,14.60498 14.70629,0.35478 14.77323,-29.73214 21.47634,-48.1287 z"
         style="opacity:1;vector-effect:none;fill:#c8f3ff;fill-opacity:1;fill-rule:nonzero;stroke:none;stroke-width:6;stroke-linecap:butt;stroke-linejoin:miter;stroke-miterlimit:4;stroke-dasharray:none;stroke-dashoffset:0;stroke-opacity:1;paint-order:stroke fill markers" />
    </g>
    <g
       style="display:inline;opacity:1"
       transform="matrix(1.2363851,0.33128838,-0.33128838,1.2363851,131.14384,-153.90431)"
       id="g958">
      <path
         style="opacity:1;vector-effect:none;fill:#f63886;fill-opacity:1;fill-rule:nonzero;stroke:none;stroke-width:6;stroke-linecap:butt;stroke-linejoin:miter;stroke-miterlimit:4;stroke-dasharray:none;stroke-dashoffset:0;stroke-opacity:1;paint-order:stroke fill markers"
         d="m 190.61328,106.70898 c -4.6044,-0.0468 -9.17852,3.29742 -8.43359,10.1211 0.039,0.3575 0.0732,0.72446 0.11133,1.08398 -2.33944,-10.88175 -18.47867,-6.99419 -16.10938,2.74414 2.45364,10.08506 4.1955,19.43153 5.10156,28.86914 -3.39223,-12.73509 -13.13117,-13.09055 -18.66406,-6.84375 6.25748,18.55286 7.2811,51.50977 23.49219,51.50977 6.36726,0 12.96699,-0.66217 24.04101,-0.10938 16.33617,0.81547 17.18406,-17.43351 19.97657,-34.33593 1.61505,-9.77553 4.31361,-19.37686 7.2832,-26.97266 3.96457,-10.14083 -8.05781,-15.20553 -12.74414,-7.79101 0.0105,-0.0353 0.0187,-0.0702 0.0293,-0.10547 4.10946,-13.67885 -12.49084,-17.15586 -15.57618,-6.85352 0.0333,-0.34934 0.0757,-0.74221 0.10743,-1.08594 0.62279,-6.74634 -4.01084,-10.18369 -8.61524,-10.23047 z"
         transform="translate(-2,462.49999)"
         id="path954"
         inkscape:connector-curvature="0" />
      <path
         style="opacity:1;vector-effect:none;fill:#ffc2ee;fill-opacity:1;fill-rule:nonzero;stroke:none;stroke-width:6;stroke-linecap:butt;stroke-linejoin:miter;stroke-miterlimit:4;stroke-dasharray:none;stroke-dashoffset:0;stroke-opacity:1;paint-order:stroke fill markers"
         d="m 190.64062,109.25977 c -3.19272,0.0356 -6.38217,2.33974 -6.02148,6.69335 0.94375,11.39113 1.57303,24.66535 1.38086,35.34766 L 182,152 c -1.11169,-10.38527 -1.35812,-20.47467 -2.30469,-33.09766 -0.52856,-7.04858 -11.74709,-4.68152 -10.41601,1.75586 3.02562,14.63255 4.59848,27.77018 4.70117,41.8711 -1.38904,0.31643 -2.77389,0.8249 -4.12695,1.56054 0.10979,-19.65066 -6.25639,-28.10412 -14.05079,-20.52929 6.25748,18.55286 5.59804,48.63281 20.3086,48.63281 6.36726,0 12.96699,-0.66217 24.04101,-0.10938 12.61292,0.62961 15.18406,-15.43351 17.97657,-32.33593 1.61505,-9.77553 3.96117,-19.26431 6.625,-26.97266 3.06208,-8.86077 -8.69908,-12.21108 -9.79688,-2.25 -0.80384,7.29377 -2.83824,16.62549 -4.52539,23.42188 l -3.22461,-0.84961 c 1.75701,-9.04059 2.40743,-18.61787 5.49024,-28.21875 3.43946,-10.71162 -11.4043,-12.72032 -11.4043,-3.29493 0,9.86951 -0.98667,19.77363 -2.41406,29.33008 l -3.45118,-0.31054 c -0.852,-10.49366 0.49088,-24.12917 1.25196,-34.43164 0.34834,-4.71542 -2.84634,-6.94767 -6.03907,-6.91211 z"
         transform="translate(-2,462.49999)"
         id="path956"
         inkscape:connector-curvature="0" />
    </g>
  </g>
  <g
     inkscape:groupmode="layer"
     id="layer2"
     inkscape:label="レイヤー 2"
     sodipodi:insensitive="true"
     style="display:none">
    <path
       style="opacity:1;vector-effect:none;fill:#000000;fill-opacity:1;fill-rule:nonzero;stroke:none;stroke-width:2;stroke-linecap:butt;stroke-linejoin:miter;stroke-miterlimit:4;stroke-dasharray:none;stroke-dashoffset:0;stroke-opacity:1;paint-order:stroke fill markers"
       d="M 128,-128 A 256,256 0 0 0 -128,128 256,256 0 0 0 128,384 256,256 0 0 0 384,128 256,256 0 0 0 128,-128 Z M 128,0 A 128,128 0 0 1 256,128 128,128 0 0 1 128,256 128,128 0 0 1 0,128 128,128 0 0 1 128,0 Z"
       id="circle5813"
       inkscape:connector-curvature="0" />
  </g>
</svg>
