<?xml version="1.0" encoding="UTF-8" standalone="no"?>
<svg width="512" height="80" version="1.1" sodipodi:docname="haitouch_logo_wide_anim.svg"
   inkscape:version="1.1.2 (b8e25be833, 2022-02-05)" id="svg8703"
   xmlns:inkscape="http://www.inkscape.org/namespaces/inkscape"
   xmlns:sodipodi="http://sodipodi.sourceforge.net/DTD/sodipodi-0.dtd" xmlns="http://www.w3.org/2000/svg"
   xmlns:svg="http://www.w3.org/2000/svg">
   <style><![CDATA[
#lh {
   animation: kf_lh 5s linear infinite normal forwards
}

@keyframes kf_lh {
   0% {
      transform: rotate(0deg) translate(0px, 0px);
   }
   60% {
      transform: rotate(0deg) translate(0px, 0px);
      animation-timing-function: cubic-bezier(0.65, 0, 0.83, 1);
   }
   70% {
      transform: rotate(10deg) translate(12px, 6px);
      animation-timing-function: cubic-bezier(0.03, 0.14, 0.08, 1);
   }
   90% {
      transform: rotate(0deg) translate(0px, 0px);
   }
   to {
      transform: rotate(0deg) translate(0px, 0px);
   }
}

#rh {
   animation: kf_rh 5s linear infinite normal forwards
}

@keyframes kf_rh {
   0% {
      transform: rotate(0deg) translate(0px, 0px);
   }
   60% {
      transform: rotate(0deg) translate(0px, 0px);
      animation-timing-function: cubic-bezier(0.65, 0, 0.83, 1);
   }
   70% {
      transform: rotate(-10deg) translate(-12px, -6px);
      animation-timing-function: cubic-bezier(0.03, 0.14, 0.08, 1);
   }
   90% {
      transform: rotate(0deg) translate(0px, 0px);
   }
   to {
      transform: rotate(0deg) translate(0px, 0px);
   }
}

#exclam {
   animation: kf_exclam 10s linear infinite normal forwards
}

@keyframes kf_exclam {
   0% {
      fill-opacity: 1.0;
   }
   36% {
      fill-opacity: 1.0;
      animation-timing-function: cubic-bezier(0.3, 0, 0.3, 1)
   }
   46% {
      fill-opacity: 0.0;
   }
   88% {
      fill-opacity: 0.0;
      animation-timing-function: cubic-bezier(0.3, 0, 0.3, 1)
   }
   99% {
      fill-opacity: 1.0;
   }
   to {
      fill-opacity: 1.0;
   }
}

#touch {
   animation: kf_touch 10s linear infinite normal forwards
}

@keyframes kf_touch {
   0% {
      transform: translateX(0px);
   }
   37% {
      transform: translateX(0px);
      animation-timing-function: cubic-bezier(0.3, 0, 0.3, 1)
   }
   47% {
      transform: translateX(-16px);
   }
   86% {
      transform: translateX(-16px);
      animation-timing-function: cubic-bezier(0.3, 0, 0.3, 1)
   }
   96% {
      transform: translateX(0px);
   }
   to {
      transform: translateX(0px);
   }
}

#studios > path {
   animation: kf_studios 10s linear infinite normal forwards
}

@keyframes kf_studios {
   0% {
      transform: scaleY(1);
   }
   36% {
      transform: scaleY(1);
      animation-timing-function: cubic-bezier(0.8, 0, 0.95, 0.5);
   }
   38% {
      transform: scaleY(0);
   }
   98% {
      transform: scaleY(0);
      animation-timing-function: cubic-bezier(0.05, 0.5, 0.2, 1);
   }
   to {
      transform: scaleY(1);
   }
}

#games {
   transform: scaleY(0);
   animation: kf_games 10s linear infinite normal forwards
}

@keyframes kf_games {
   0% {
      transform: scaleY(0);
   }
   38% {
      transform: scaleY(0);
      animation-timing-function: cubic-bezier(0.05, 0.5, 0.2, 1);
   }
   40% {
      transform: scaleY(1);
   }
   42% {
      transform: translateX(0px);
      animation-timing-function: cubic-bezier(0.3, 0, 0.3, 1);
   }
   50% {
      transform: translateX(-24px);
   }
   86% {
      transform: translateX(-24px);
      animation-timing-function: cubic-bezier(0.3, 0, 0.3, 1);
   }
   92% {
      transform: translateX(0px);
   }
   96% {
      transform: scaleY(1);
      animation-timing-function: cubic-bezier(0.8, 0, 0.95, 0.5);
   }
   98% {
      transform: scaleY(0);
   }
   to {
      transform: scaleY(0);
   }
}

#dot {
   animation: kf_dot 10s linear infinite normal forwards
}

@keyframes kf_dot {
   0% {
      fill-opacity: 0.0;
   }
   42% {
      fill-opacity: 0.0;
      animation-timing-function: cubic-bezier(0.3, 0, 0.3, 1);
   }
   50% {
      fill-opacity: 0.75;
   }
   86% {
      fill-opacity: 0.75;
      animation-timing-function: cubic-bezier(0.3, 0, 0.3, 1);
   }
   92% {
      fill-opacity: 0.0;
   }
   to {
      fill-opacity: 0.0;
   }
}

#slash {
   animation: kf_slash 10s linear infinite normal forwards
}

@keyframes kf_slash {
   0% {
      fill-opacity: 0.0;
   }
   42% {
      fill-opacity: 0.0;
      transform: translateX(0px);
      animation-timing-function: cubic-bezier(0.3, 0, 0.3, 1);
   }
   50% {
      fill-opacity: 0.75;
      transform: translateX(8px);
   }
   86% {
      fill-opacity: 0.75;
      transform: translateX(8px);
      animation-timing-function: cubic-bezier(0.3, 0, 0.3, 1);
   }
   92% {
      fill-opacity: 0.0;
      transform: translateX(0px);
   }
   to {
      fill-opacity: 0.0;
      transform: translateX(0px);
   }
}

#mes {
   animation: kf_mes 10s linear infinite normal forwards
}

@keyframes kf_mes {
   0% {
      transform: translateX(0px);
   }
   42% {
      transform: translateX(0px);
      animation-timing-function: cubic-bezier(0.3, 0, 0.3, 1)
   }
   50% {
      transform: translateX(16px);
   }
   86% {
      transform: translateX(16px);
      animation-timing-function: cubic-bezier(0.3, 0, 0.3, 1)
   }
   92% {
      transform: translateX(0px);
   }
   to {
      transform: translateX(0px);
   }
}

]]></style>
   <rect id="bg" fill="#000000" fill-opacity="0" width="512" height="80" x="0" y="0" />
   <g id="lh_box" transform="translate(48.551723,44.718693)">
      <g id="lh">
         <path
            d="m -11.261723,-44.509693 c 3.296,-0.834 7.161,0.771 7.812,5.798 l 0.109,0.797 c -0.213,-8.217 12.046,-8.233 12.039,-0.831 -0.011,11.535 0.809,21.592 3.36,32.118 l 2.299,22.384 c -4.57,1.107 -9.421,1.779 -17.273,4.101 -11.583,3.426 -15.364,-9.524 -20.307,-21.169 -2.859,-6.735 -6.465,-13.157 -9.917,-18.092 -4.609,-6.589 3.139,-12.314 7.792,-7.807 l -0.039,-0.071 c -5.328,-9.103 5.982,-14.484 9.987,-7.627 l -0.266,-0.761 c -1.62,-4.734 1.108,-8.006 4.404,-8.84 z"
            fill="#6594e5" id="path6" />
         <path
            d="m 10.623277,-6.280693 c -2.551,-10.526 -3.762,-20.514 -4.148,-31.927 -0.164,-4.852 -8.627,-4.6 -7.78,0.55 1.515,9.224 3.092,16.508 4.1,24.155 l -2.992,0.194 c -1.995,-7.633 -3.851,-17.271 -5.154,-25.61 -0.996,-6.375 -10.758,-4.393 -8.619,2.255 2.338,7.262 5.673,16.814 6.886,24.493 l -2.423,0.823 c -2.686,-6.61 -5.117,-13.546 -6.833,-20.629 -1.639,-6.765 -11.942,-2.743 -7.611,4.346 3.882,6.355 6.013,13.116 8.846,19.299 l -2.166,1.171 c -2.393,-4.584 -5.475,-10.929 -7.32,-16.023 -2.52,-6.958 -10.379,-2.509 -6.64,3.318 3.252,5.069 6.586,11.472 9.445,18.207 4.943,11.645 9.58,22.726 18.523,20.082 7.852,-2.322 12.704,-2.994 17.274,-4.101"
            fill="#c8f3ff" id="path8" />
         <path
            d="m 22.262277,-25.297693 c -6.221,-4.332 -15.275,-0.387 -11.188,16.14 -9.184,-2.446 -17.917,9.227 -12.842,16.541 4.896,7.057 13.603,8.984 16.125,8.373 11.635,-2.819 6.64,-26.651 7.905,-41.054 z"
            fill="#6594e5" id="path10" />
         <path
            d="m 20.130277,-24.113693 c -6.911,-4.081 -10.011,3.093 -6.516,17.177 -9.184,-2.446 -17.253,6.599 -15.382,14.32 1.871,7.721 7.977,8.828 15.778,6.938 10.558,-2.558 4.855,-24.031 6.12,-38.435 z"
            fill="#c8f3ff" id="path12" />
      </g>
   </g>
   <g id="rh_box" transform="translate(79.448275,59.818512)">
      <g id="rh">
         <path
            d="m 12.448729,-44.614512 c -3.275,-0.913 -7.177,0.598 -7.95,5.607 l -0.128,0.794 c 0.411,-8.209 -11.844,-8.521 -12.015,-1.122 -0.177,7.663 -0.721,14.662 -1.879,21.567 0.014,-9.732 -6.864,-11.847 -12.005,-8.449 0.917,14.43 -4.651,38.133 6.912,41.232 4.542,1.217 9.376,2.006 17.169,4.517 11.497,3.704 15.589,-9.151 20.812,-20.674 3.02,-6.664 6.78,-12.997 10.35,-17.847 4.766,-6.476 -2.841,-12.386 -7.601,-7.993 l 0.041,-0.07 c 5.546,-8.972 -5.631,-14.625 -9.801,-7.866 l 0.284,-0.754 c 1.734,-4.693 -0.915,-8.031 -4.19,-8.944 z"
            fill="#f63886" id="path14" />
         <path
            d="m 11.980729,-42.790512 c -2.284,-0.585 -5,0.449 -5.574,3.623 -1.504,8.306 -3.592,17.894 -5.771,25.477 l -2.987,-0.266 c 1.192,-7.62 2.945,-14.864 4.682,-24.049 0.97,-5.129 -7.484,-5.584 -7.765,-0.738 -0.639,11.016 -2.028,20.687 -4.649,30.765 -1.051,-0.04 -2.136,0.058 -3.242,0.324 3.834,-13.996 0.909,-21.242 -6.099,-17.329 0.917,14.43 -5.302,35.759 5.191,38.571 4.542,1.217 9.376,2.006 17.169,4.517 8.876,2.86 13.78,-8.107 19.003,-19.629 3.02,-6.664 6.507,-12.984 9.881,-17.973 3.878,-5.735 -3.871,-10.373 -6.558,-3.477 -1.967,5.049 -5.202,11.316 -7.704,15.842 l -2.138,-1.222 c 2.981,-6.113 5.276,-12.82 9.31,-19.079 4.501,-6.983 -5.703,-11.253 -7.505,-4.53 -1.886,7.04 -4.483,13.916 -7.328,20.46 l -2.402,-0.881 c 1.398,-7.648 4.962,-17.117 7.474,-24.321 1.15,-3.297 -0.702,-5.5 -2.987,-6.085 z"
            fill="#ffc2ee" id="path16" />
      </g>
   </g>
   <path id="hai" fill="#fffcbc"
      d="M 195.47461 20.054688 C 191.22461 20.054688 190.30469 22.359422 190.30469 25.482422 C 190.30469 28.708422 192.40261 30.447266 195.47461 30.447266 C 198.64861 30.447266 200.85156 28.401797 200.85156 25.841797 C 200.85156 22.206797 198.64861 20.056641 195.47461 20.056641 L 195.47461 20.054688 z M 140.66406 20.1875 C 137.85306 20.1475 134.1283 20.579484 133.9043 20.771484 C 133.5463 21.078484 133.80086 58.710578 134.00586 59.017578 C 134.21086 59.324578 143.58037 59.427656 143.73438 59.222656 C 143.93938 59.068656 143.99023 46.525797 143.99023 45.091797 C 143.99023 43.555797 145.01306 41.763672 147.16406 41.763672 C 149.31506 41.763672 150.03125 44.016516 150.03125 45.603516 L 149.98047 59.376953 C 150.08247 59.478953 159.50355 59.375578 159.81055 59.017578 C 160.11755 58.659578 160.58008 47.958781 160.58008 44.425781 C 160.58008 37.769781 157.40613 33.007814 149.82812 33.007812 C 146.29513 33.007812 144.65652 34.287922 143.47852 35.669922 C 143.68352 34.082922 143.98916 22.305828 143.78516 20.923828 C 143.70816 20.405828 142.35106 20.2115 140.66406 20.1875 z M 174.2793 32.90625 C 167.0603 32.90625 163.47461 38.026703 163.47461 38.845703 C 163.47461 39.562703 167.57025 43.248047 168.03125 43.248047 C 168.49225 43.248047 170.13141 41.302734 172.69141 41.302734 C 177.14541 41.302734 176.37717 44.681437 176.32617 45.398438 C 175.45617 44.937438 174.38003 44.425781 172.33203 44.425781 C 167.31403 44.425781 163.26953 47.243047 163.26953 51.748047 C 163.26953 56.458047 165.52309 59.529297 170.74609 59.529297 C 175.04709 59.529297 177.14648 56.662109 177.14648 56.662109 L 177.71094 58.863281 C 177.71094 58.863281 185.59405 59.170281 185.74805 58.863281 C 185.90205 58.556281 186.15625 49.903406 186.15625 44.066406 C 186.15625 36.540406 180.4743 32.90625 174.2793 32.90625 z M 193.58008 33.115234 C 191.82508 33.124234 190.38595 33.207922 190.25195 33.419922 C 189.89395 33.982922 190.30425 58.915359 190.40625 59.068359 C 190.50825 59.221359 199.62313 59.376578 199.82812 59.017578 C 200.03312 58.658578 200.64641 33.622969 200.44141 33.417969 C 200.31341 33.289969 196.50508 33.101234 193.58008 33.115234 z M 173.66406 49.494141 C 174.84206 49.494141 175.81445 50.417703 175.81445 51.595703 C 175.81445 52.773703 175.09706 53.695313 173.66406 53.695312 C 172.48606 53.695312 171.56445 52.773703 171.56445 51.595703 C 171.56445 50.417703 172.38406 49.494141 173.66406 49.494141 z " />
   <path id="exclam" fill="#fffcbc"
      d="M 214.13672 22.714844 C 210.69272 22.668844 204.89359 23.061375 203.93359 23.484375 C 203.93359 33.314375 208.23445 43.760844 208.43945 43.964844 C 208.64445 44.168844 212.12637 44.527844 212.48438 43.964844 C 212.84237 43.401844 216.3753 35.158875 216.5293 22.921875 C 216.1713 22.793875 215.28472 22.729844 214.13672 22.714844 z M 210.64062 47.394531 C 206.95462 47.394531 204.39453 49.751703 204.39453 52.720703 C 204.39453 56.970703 206.95462 59.427734 210.64062 59.427734 C 215.60663 59.427734 216.63086 56.763906 216.63086 53.128906 C 216.63086 49.390906 214.22463 47.394531 210.64062 47.394531 z " />
   <path id="touch" fill="#fff"
      d="M325.738 20.496c-1.069.006-2.146.147-2.248.326-.154 7.782-.204 38.092-.152 38.297.102.307 4.249.461 4.352.205.154-.154.205-12.39.205-14.643 0-2.97 2.561-5.99 6.605-5.99 3.789 0 5.836 2.969 5.836 6.246l-.102 14.131c.205.154 4.094.411 4.248-.152.256-2.253.514-11.01.514-14.133 0-6.554-3.994-10.187-9.729-10.187-3.686 0-6.502 2.048-7.475 3.789.102-.614.204-16.333.152-17.408-.077-.358-1.138-.487-2.207-.48zm-97.115 7.385c-1.116-.031-3.219.162-3.564.469-.461.461-.307 6.093-.461 6.195s-4.506-.104-4.711-.053c-.512.154-.256 3.43-.051 3.584.256.154 4.711.205 4.711.256s-.564 11.163-.666 13.979c-.051 4.352 2.047 7.423 7.014 7.475 4.403.102 6.965-2.252 6.965-2.252-.051-.614-.871-3.072-1.383-3.328-.461 0-2.151 1.586-4.762 1.535-2.509-.051-3.328-1.69-3.328-4.045l.512-13.107c0-.205 8.089.256 8.447-.051 0 0 .41-3.02-.051-3.43-.512-.41-8.089-.411-8.191-.359-.102 0 .461-6.502.205-6.758-.051-.064-.314-.099-.686-.109zm43.635 6.451c-.723.017-1.306.116-1.363.365-.205 2.355-.77 11.417-.77 15.309 0 6.144 2.765 9.984 9.268 9.984 3.226 0 6.452-1.793 7.834-3.738-.051.307-.052 2.101-.104 3.125.358.461 3.841.665 4.148.102l.666-24.525c-.205-.256-4.147-.358-4.301-.102-.154.205-.462 12.902-.514 14.592-.102 3.635-2.662 6.502-6.758 6.502-3.789-.051-5.734-2.305-5.734-6.145 0-2.765.615-13.72.615-15.205-.192-.096-1.784-.293-2.988-.264zm37.273.16c-7.782 0-11.828 6.35-11.828 12.545s3.278 12.596 11.982 12.596c3.686 0 6.654-1.639 8.088-3.533-.666-1.434-1.74-3.021-2.047-2.816-.717.512-2.919 2.252-5.939 2.252-2.611 0-7.525-1.381-7.525-8.293 0-5.53 3.225-8.5 7.525-8.5 3.533 0 5.99 2.305 6.451 2.305.614-.051 1.741-3.072 1.588-3.635-.154-.512-3.175-2.92-8.295-2.92zm-56.852.053c-7.578 0-11.775 6.092-11.775 12.287 0 8.038 5.018 12.748 11.879 12.748 7.68-.154 11.775-5.479 11.775-12.391 0-8.346-5.069-12.645-11.879-12.645zm.104 4.453c3.891.051 7.32 1.843 7.32 8.09 0 5.325-2.508 8.397-7.475 8.346-3.891 0-7.27-2.662-7.27-8.396 0-4.557 2.355-8.09 7.424-8.039z" />
   <g id="studios" transform="translate(429.323,47.556)">
      <path
         d="m -57.878006,-13.29 c -2.545,-0.036 -4.624,0.539 -6.309,1.793 -1.684,1.219 -2.51,3.082 -2.51,5.555 0,2.796 1.435,4.982 4.338,6.559 0.538,0.287 1.397,0.682 2.58,1.184 1.219,0.466 2.186,0.932 2.902,1.326 0.824,0.466 1.184,1.038 1.076,1.719 -0.036,0.824 -0.753,1.219 -2.15,1.111 -1.111,-0.072 -2.116,-0.466 -3.012,-1.146 -0.896,-0.68 -1.576,-1.326 -1.971,-1.936 l -4.516,3.441 c 0.753,1.756 2.043,3.117 3.871,4.156 1.828,1.004 3.835,1.505 5.949,1.541 2.365,0 4.266,-0.502 5.699,-1.541 1.935,-1.398 2.902,-3.476 2.902,-6.271 0,-2.007 -0.789,-3.656 -2.33,-4.982 -0.645,-0.573 -1.791,-1.182 -3.404,-1.863 a 47.39,47.39 0 0 1 -3.441,-1.361 c -1.183,-0.573 -1.719,-1.183 -1.611,-1.828 0.108,-0.968 0.824,-1.434 2.186,-1.398 0.86,0.036 1.757,0.395 2.725,1.004 0.968,0.609 1.647,1.327 2.113,2.08 l 4.158,-4.23 c -2.15,-3.154 -5.232,-4.803 -9.246,-4.91 z m 57.53299916,0 c -2.04299996,-0.036 -4.15799996,0.287 -6.34399996,0.896 l 0.107,23.689 c 4.05,0.323 7.38399998,0 10.072,-0.932 5.053,-1.756 8.3150008,-6.163 8.2790008,-12.65 -0.179,-7.276 -4.2300008,-10.968 -12.11500084,-11.004 z m 34.93900084,0 c -3.584,-0.036 -6.344,1.112 -8.279,3.441 -1.935,2.329 -2.904,5.305 -2.904,8.996 0,3.835 0.932,6.917 2.76,9.318 1.864,2.365 4.661,3.512 8.424,3.404 3.441,-0.108 6.056,-1.29 7.848,-3.584 1.792,-2.294 2.724,-5.196 2.76,-8.744 0.108,-6.917 -3.045,-12.725 -10.607,-12.832 z m 21.697,0 c -2.545,-0.036 -4.624,0.539 -6.309,1.793 -1.684,1.219 -2.51,3.082 -2.51,5.555 0,2.796 1.435,4.982 4.338,6.559 0.538,0.287 1.397,0.682 2.58,1.184 1.219,0.466 2.186,0.932 2.902,1.326 0.824,0.466 1.184,1.038 1.076,1.719 -0.036,0.824 -0.753,1.219 -2.15,1.111 -1.111,-0.072 -2.114,-0.466 -3.01,-1.146 -0.896,-0.68 -1.578,-1.326 -1.973,-1.936 l -4.516,3.441 c 0.753,1.756 2.043,3.117 3.871,4.156 1.828,1.004 3.835,1.505 5.949,1.541 2.365,0 4.266,-0.502 5.699,-1.541 1.935,-1.398 2.902,-3.476 2.902,-6.271 0,-2.007 -0.789,-3.656 -2.33,-4.982 -0.645,-0.573 -1.791,-1.182 -3.404,-1.863 a 47.39,47.39 0 0 1 -3.441,-1.361 c -1.183,-0.573 -1.719,-1.183 -1.611,-1.828 0.108,-0.968 0.824,-1.434 2.186,-1.398 0.86,0.036 1.757,0.395 2.725,1.004 0.968,0.609 1.647,1.327 2.113,2.08 l 4.158,-4.23 c -2.15,-3.154 -5.232,-4.803 -9.246,-4.91 z m -86.172,0.322 -17.67,0.324 -0.035,7.096 5.377,-0.322 0.07,17.275 h 6.236 l 0.359,-17.635 5.662,-0.322 z m 10.096,0 -7.42,0.217 c -0.824,5.268 -1.255,9.389 -1.219,12.436 0.036,8.172 3.225,12.258 9.533,12.258 6.487,0 9.8209992,-4.587 9.9999992,-13.727 a 67.57,67.57 0 0 0 -0.215,-6.631 c -0.179,-2.186 -0.358,-3.691 -0.537,-4.516 l -7.1679992,0.18 c 0.466,4.193 0.751,7.74 0.787,10.715 0.036,2.15 -0.035,3.621 -0.357,5.055 -0.287,1.434 -1.039,2.186 -2.186,2.186 -1.756,0 -2.617,-2.008 -2.51,-5.986 0.036,-2.115 0.179,-4.479 0.502,-7.023 0.323,-2.544 0.574,-4.266 0.789,-5.162 z m 40.807,0.037 -6.846,0.609 -0.035,23.727 h 6.846 z m 13.428,6.092 c 3.333,0.108 3.979,3.513 3.979,6.201 0.072,2.796 -0.931,5.914 -4.121,6.021 -1.971,0 -3.261,-1.721 -3.691,-3.441 -0.215,-0.896 -0.323,-1.792 -0.287,-2.76 0.036,-2.043 0.323,-3.727 1.613,-5.018 0.645,-0.681 1.468,-1.004 2.508,-1.004 z M 0.65299318,-6.745 c 1.03500002,-0.002 1.96700002,0.356 2.80100002,1.055 1.111,0.896 1.686,2.258 1.686,4.014 -0.036,1.72 -0.573,3.225 -1.648,4.516 -1.075,1.254 -2.366,1.97 -3.83600004,2.113 l -0.072,-11.576 c 0.367,-0.081 0.72500002,-0.121 1.07000002,-0.121 z"
         id="studios_txt" fill="#ffffff" fill-opacity="0.778" />
   </g>
   <g id="games_position" transform="translate(429.323, 47.556)">
      <g id="games" transform="translate(429.323,47.556)">
         <path id="dot" fill="#ffffff" fill-opacity="0.778"
            d="m -65.5,-1.2526598 c -3.11133,0.057715 -4.79883,1.930078 -4.79883,4.892578 0,2.8399988 2.20023,4.6817178 4.24023,4.7617178 3.56,0.12 5.51954,-1.76086 5.51954,-4.8808588 0,-3.48 -2.20032,-4.639765 -4.32032,-4.759765 -0.22,-0.0125 -0.4332,-0.01752 -0.64062,-0.013672 z" />
         <path id="ga" fill="#ffffff" fill-opacity="0.778"
            d="m -12.62769,-11.407562 -7.86719,0.603515 -0.08593,2.148438 c -1.07477,-1.719636 -3.35239,-2.537132 -5.54492,-2.494141 -2.57946,0.04299 -4.77253,0.946402 -6.53516,2.623047 -1.76263,1.676645 -2.66602,4.341845 -2.66602,8.039062 0,3.568245 0.86045,6.233445 2.58008,8.039063 1.76263,1.762627 3.91274,2.708919 6.49219,2.83789 2.27852,0.128974 4.94265,-0.600764 6.31836,-2.148437 l 0.60351,1.460937 h 6.36133 z m -24.89062,0.257812 -7.05078,0.388672 0.04297,2.019531 c -1.16076,-1.418699 -3.05334,-2.062566 -5.67579,-1.933594 -2.3645,0.128973 -4.3839,1.030387 -6.06054,2.707032 -1.67665,1.676645 -2.49414,4.041418 -2.49414,7.050781 0,2.923381 0.77459,5.28811 2.32226,7.136719 1.59067,1.848609 3.7837,2.751975 6.6211,2.708984 2.27851,0 3.95452,-0.602918 5.02929,-1.763672 0,3.052354 -1.84843,4.386609 -4.12695,4.601563 -0.38692,0.171964 -1.59162,-0.08594 -1.93555,-0.08594 -0.34392,0.04299 -1.41781,-0.302712 -1.71875,-0.345703 -0.21495,0 -1.20303,-0.429665 -1.375,-0.472656 -0.17196,-0.04299 -1.03318,-0.472655 -1.07617,-0.472657 l -1.54687,6.664063 c 2.23552,1.246736 4.90074,1.847656 7.99609,1.847656 3.69722,0 6.40534,-0.987262 8.16797,-2.964843 1.71963,-1.891599 2.62302,-4.902149 2.66601,-9.072266 z m 13.58398,6.492188 c 2.10656,0 3.65432,1.676383 3.61133,4.298828 0,2.278517 -1.41879,4.255859 -3.61133,4.255859 -2.19253,0 -3.74023,-1.805378 -3.74023,-4.255859 0,-2.708427 1.5477,-4.298829 3.74023,-4.298828 z m -24.24609,0.128906 c 1.93459,0 3.48242,1.633636 3.48242,3.826172 0,2.063563 -1.54783,3.740234 -3.48242,3.740234 -2.19254,0 -3.61133,-1.504708 -3.61133,-3.740234 0,-2.192536 1.54777,-3.826172 3.61133,-3.826172 z" />
         <path id="mes" fill="#ffffff" fill-opacity="0.778"
            d="m 35.82348,-11.536469 c -3.22431,0 -5.80369,1.03214 -7.73828,3.095703 -1.93459,2.020572 -2.88086,4.642871 -2.88086,7.867188 0,3.568245 1.16094,6.405209 3.43946,8.425781 1.8916,1.719636 4.29925,2.580078 7.26562,2.580078 2.66544,0 5.37356,-0.729737 8.16797,-2.148437 L 42.2727,2.994781 C 39.73624,5.187317 32.81387,5.617736 32.51294,2.0065 l 12.8125,-1.117188 c 0.30093,-3.568245 -0.34489,-6.492922 -1.93555,-8.857421 -1.59066,-2.3645 -4.12713,-3.56836 -7.56641,-3.56836 z m 20.72266,0 c -2.49347,0 -4.429,0.388274 -5.76172,1.16211 -2.19253,1.160755 -3.26758,3.008459 -3.26758,5.544921 0,1.246736 0.43118,2.364682 1.33399,3.439454 0.77383,0.902809 1.80407,1.505572 3.00781,2.064453 0.64486,0.300937 0.73207,0.300626 1.41992,0.601562 l 0.6875,0.214844 c 0.17197,0.04299 1.33201,0.429665 1.375,0.472656 0.17197,0.04299 1.33379,0.38663 1.72071,0.558594 0.21495,0.04299 0.42953,0.171787 0.73046,0.34375 0.55889,0.300936 0.77351,0.732156 0.64454,1.248047 C 58.30779,4.758786 57.70681,5.016288 56.71802,4.973297 55.55726,4.930307 54.35342,4.542032 53.10669,3.811188 51.85995,3.080342 50.99951,2.4794 50.52661,2.0065 l -3.6543,4.384766 c 2.19254,2.579454 5.37483,3.912065 9.50196,3.998046 2.53646,0.04299 4.59883,-0.429178 6.10351,-1.417968 1.97758,-1.246736 2.96678,-3.096394 3.00977,-5.546875 0.08598,-2.794409 -1.28958,-4.642113 -4.08399,-5.544922 -0.38692,-0.128973 -1.16146,-0.429488 -2.4082,-0.816406 -1.24674,-0.386918 -2.0623,-0.689387 -2.44922,-0.81836 -0.64486,-0.214955 -2.06461,-0.644022 -1.76367,-1.632812 0.17196,-0.558882 0.73191,-0.816407 1.7207,-0.816407 1.71964,0.042991 3.78252,1.204259 5.11524,2.794922 l 3.82617,-4 c -1.93459,-2.536462 -5.50216,-4.083962 -8.89844,-4.126953 z m -52.53516,0.300781 c -2.27851,0 -4.34282,1.117968 -6.14843,3.396485 v -3.310547 l -7.56641,0.732422 0.30078,20.11914 h 7.13672 l 0.08594,-12.33789 c 0.73084,-1.074772 1.63423,-1.591819 2.66601,-1.548828 1.24674,0.04299 1.93358,1.032183 1.97657,3.009765 0.04299,2.020572 -0.08585,4.857847 -0.25782,7.824219 l -0.1289,3.052734 h 8.125 c 0,-1.203745 0.2597,-7.137431 0.38867,-9.544921 l 0.04297,-0.945313 c 0,-0.988791 2e-5,-1.761475 -0.04297,-2.234375 0.73084,-0.816827 1.50346,-1.2051 2.36328,-1.162109 1.24674,0.04299 1.93553,1.032183 1.97852,3.009765 0.04299,2.020572 -0.08585,4.857847 -0.25782,7.824219 l -0.1289,3.052734 h 8.125 c 0,-1.203745 0.25774,-7.137431 0.38672,-9.544921 l 0.04297,-0.945313 c 0,-2.579454 -0.12865,-4.211916 -0.64454,-6.103516 -0.25794,-0.98879 -0.64624,-1.763384 -1.11914,-2.322265 -0.90281,-1.203745 -2.5789,-2.021485 -4.85742,-2.021485 -2.49347,0 -4.68652,1.334587 -6.57812,3.957032 -0.9458,-2.622445 -2.9223,-3.957032 -5.88868,-3.957032 z M 35.68872,-5.7435 c 1.64742,3.15e-4 2.65289,0.912354 3.01562,2.806641 l -6.23437,0.644531 c -0.04299,-1.891599 1.20421,-3.267489 2.88086,-3.439453 0.11554,-0.00806 0.22806,-0.01174 0.33789,-0.011719 z" />
         <path id="slash" fill="#ffffff" fill-opacity="0.778"
            d="m -19.617006,10.336 c 0,0.52 5.118,1.744 5.758,1.904 0.64,0.16 13.67999916,-32.84 13.67999916,-33.04 0,-0.2 -5.91799996,-1.384 -5.91799996,-1.384 -0.08,0.08 -13.5199992,32.4 -13.5199992,32.52 z" />         
      </g>
   </g>
</svg>