<svg xmlns="http://www.w3.org/2000/svg" width="128" height="128" xmlns:v="https://vecta.io/nano"><style><![CDATA[.B{stroke-linecap:round}.C{stroke-linejoin:round}.D{stroke-miterlimit:4}.E{stroke-dasharray:none}]]></style><defs><clipPath id="A"><path d="M12 24h104v92H12z" fill="#fff" fill-opacity="1" stroke="none" stroke-width="1" stroke-opacity="1" paint-order="normal" class="B C D E"/></clipPath><clipPath id="B"><circle cx="93" cy="128" r="84" fill="#4ad2b2" fill-opacity="1" stroke="none" stroke-width="1" stroke-opacity="1" paint-order="normal" class="B C D E"/></clipPath><linearGradient id="C" x1="27.396" y1="26.941" x2="27.396" y2="106.353" gradientUnits="userSpaceOnUse"><stop offset="0" stop-color="#172132"/><stop offset="1" stop-color="#2e518b"/></linearGradient><linearGradient id="D" x1="112" y1="16" x2="112" y2="112" gradientUnits="userSpaceOnUse"><stop offset="0" stop-color="#2eb6f7"/><stop offset="1" stop-color="#1366c6"/></linearGradient></defs><rect width="102" height="102" x="13" y="13" rx="1.889" fill="url(#D)" paint-order="normal"/><g clip-path="url(#A)" transform="matrix(.944444 0 0 .944444 3.555555 3.555555)"><path d="M8 20h112v100H8z" fill="url(#C)" paint-order="normal"/><circle cx="93" cy="128" r="84" fill="#4ad2b2" paint-order="normal"/><g clip-path="url(#B)" fill="none" stroke="#82f995" class="B C"><path d="M60.719 45.461c3.271 1.629 11.945 12.776 16.81 21.062C70.567 64.576 57.499 62.537 48 64c-1.066 10.895 1.133 35.498 3.584 42.836-13.637 2.677-22.236 5.236-31.584 7.618.923-9.829 5.67-26.089 9-33.453 4.397-5.772 12.965-13.249 19-17 8.365-8.19 32.313-16.697 44.416-13.164M77.529 66.522C78.055 77.567 81.219 106.739 84 116c5.798-7.981 13.973-17.583 25.785-24.951-2.28-11.363-8.261-29.136-17.369-40.213C92.266 65.119 86.562 100.663 84 116" paint-order="normal"/><path d="M84 116c-6.539-3.61-25.305-7.93-32.416-9.164 4.337-8.973 21.146-34.484 25.945-40.313" paint-order="normal"/><path d="M51.584 106.836c14.163-8.137 48.418-14.964 58.201-15.787 6.018-2.706 32.693-6.001 32.693-6.001M92.416 50.836c13.815 5.497 32.247 18.05 35.584 22.286" paint-order="normal"/><path d="M77.529 66.522c12.853 10.68 37.96 55.871 40.313 67.012M29 81c4.423 15.659 15.564 45.473 21.213 53.946" paint-order="normal"/><path d="M51.584 106.836C36.09 95.404 15.221 93.521 11.769 92.422M48 64c5.194-15.514 20.258-29.636 20.258-29.636m24.158 16.472c-5.329-7.056-24.158-16.471-24.158-16.471m9.271 32.157c14.887-11.918 48.002-21.645 56.319-22.586" paint-order="normal"/></g><g fill="#dcff67"><path d="M48 54.135l2.215 6.816h7.167l-5.798 4.213 2.214 6.816L48 67.768l-5.798 4.212 2.214-6.816-5.798-4.213h7.167zm44.416-13.164l2.215 6.816h7.167L96 52l2.214 6.816-5.798-4.212-5.798 4.212L88.832 52l-5.798-4.213h7.167zm-40.832 56l2.215 6.816h7.167L55.168 108l2.214 6.816-5.798-4.212-5.798 4.212L48 108l-5.798-4.213h7.167zM84 106.135l2.215 6.816h7.167l-5.798 4.213 2.214 6.816L84 119.768l-5.798 4.212 2.214-6.816-5.798-4.213h7.167zM109.785 87l.909 2.797h2.941l-2.38 1.729.909 2.797-2.38-1.729-2.38 1.729.909-2.797-2.38-1.729h2.941zM77.529 62.473l.909 2.797h2.941L79 67l.909 2.797-2.38-1.729-2.38 1.729.909-2.797-2.38-1.729h2.941zM29 76.951l.909 2.797h2.941l-2.38 1.729.909 2.797L29 82.547l-2.38 1.729.909-2.797-2.38-1.729h2.941zm-9 33.454l.909 2.797h2.941l-2.38 1.729.909 2.797L20 116l-2.38 1.729.909-2.797-2.38-1.729h2.941z" paint-order="normal"/></g></g></svg>