<svg width="24" height="24" version="1.1" viewBox="0 0 24 24" xmlns="http://www.w3.org/2000/svg">
<path d="m12 18v2h-9v-16h9v1h1v-2c0-0.554-0.446-1-1-1h-9c-0.554 0-1 0.446-1 1v18c0 0.554 0.446 1 1 1h9c0.554 0 1-0.446 1-1v-3" style="paint-order:stroke markers fill"/>
<path d="m15.5 4a7.5 7.5 0 0 0-7.5 7.5 7.5 7.5 0 0 0 7.5 7.5 7.5 7.5 0 0 0 7.5-7.5 7.5 7.5 0 0 0-7.5-7.5zm0 1a6.5 6.5 0 0 1 6.5 6.5 6.5 6.5 0 0 1-6.5 6.5 6.5 6.5 0 0 1-6.5-6.5 6.5 6.5 0 0 1 6.5-6.5z" style="paint-order:stroke markers fill"/>
<path d="m9.625 7v1h11.75v-1h-11.75zm-1.1816 4v1h13.996v-1h-13.996zm1.2168 4v1h11.889v-1h-11.889z" style="paint-order:stroke markers fill"/>
<path d="m15.5 4.5c-1.933 0-3.5 2.5-3.5 7s1.567 7 3.5 7 3.5-2.5 3.5-7-1.567-7-3.5-7zm0 0.5c1.3807 0 2.5 2.9101 2.5 6.5 0 3.5899-1.1193 6.5-2.5 6.5s-2.5-2.9101-2.5-6.5c0-3.5899 1.1193-6.5 2.5-6.5z" style="paint-order:stroke markers fill"/>
</svg>
